G75*
%MOIN*%
%OFA0B0*%
%FSLAX25Y25*%
%IPPOS*%
%LPD*%
%AMOC8*
5,1,8,0,0,1.08239X$1,22.5*
%
%ADD10R,0.04737X0.05131*%
%ADD11R,0.09461X0.03162*%
%ADD12R,0.03950X0.04343*%
%ADD13R,0.05131X0.04737*%
%ADD14R,0.07531X0.07531*%
%ADD15OC8,0.07531*%
%ADD16R,0.13068X0.13068*%
%ADD17C,0.05800*%
%ADD18C,0.05200*%
D10*
X0035580Y0036052D03*
X0035580Y0042745D03*
X0035595Y0054505D03*
X0035595Y0061198D03*
X0056721Y0065658D03*
X0056721Y0072351D03*
X0056957Y0079989D03*
X0056957Y0086682D03*
X0058296Y0036682D03*
X0058296Y0029989D03*
X0008926Y0064831D03*
X0008926Y0071524D03*
X0008926Y0080698D03*
X0008926Y0087391D03*
D11*
X0023965Y0086111D03*
X0023965Y0081111D03*
X0023965Y0076111D03*
X0023965Y0071111D03*
X0044438Y0071111D03*
X0044438Y0076111D03*
X0044438Y0081111D03*
X0044438Y0086111D03*
D12*
X0007548Y0007351D03*
X0011288Y0015619D03*
X0015028Y0007351D03*
X0031879Y0007233D03*
X0035619Y0015501D03*
X0039359Y0007233D03*
X0053454Y0007351D03*
X0057194Y0015619D03*
X0060934Y0007351D03*
D13*
X0014477Y0025461D03*
X0007784Y0025461D03*
X0007784Y0037312D03*
X0014477Y0037312D03*
D14*
X0046249Y0025028D03*
D15*
X0036406Y0025028D03*
X0026564Y0025028D03*
D16*
X0018690Y0052587D03*
X0054123Y0052587D03*
D17*
X0056524Y0096170D03*
X0033847Y0096564D03*
X0008769Y0096682D03*
D18*
X0014400Y0083700D03*
X0022500Y0090900D03*
X0031500Y0085500D03*
X0042300Y0093600D03*
X0052200Y0076500D03*
X0035100Y0048600D03*
X0030600Y0065700D03*
X0023400Y0036900D03*
X0010800Y0032400D03*
X0016200Y0016200D03*
X0045900Y0011700D03*
X0056700Y0020700D03*
X0049106Y0032513D03*
X0053100Y0036900D03*
M02*
