G75*
%MOIN*%
%OFA0B0*%
%FSLAX25Y25*%
%IPPOS*%
%LPD*%
%AMOC8*
5,1,8,0,0,1.08239X$1,22.5*
%
%ADD10C,0.01000*%
%ADD11C,0.00394*%
%ADD12C,0.01500*%
%ADD13C,0.00800*%
%ADD14R,0.03000X0.01800*%
%ADD15R,0.01800X0.03000*%
D10*
X0498688Y0097151D02*
X0498688Y0100926D01*
X0496774Y0099029D02*
X0500711Y0099029D01*
X0531365Y0100533D02*
X0531365Y0095415D01*
D11*
X0532805Y0098171D02*
X0532807Y0098316D01*
X0532813Y0098460D01*
X0532823Y0098605D01*
X0532837Y0098749D01*
X0532855Y0098893D01*
X0532877Y0099036D01*
X0532902Y0099178D01*
X0532932Y0099320D01*
X0532966Y0099461D01*
X0533003Y0099600D01*
X0533045Y0099739D01*
X0533090Y0099877D01*
X0533139Y0100013D01*
X0533191Y0100148D01*
X0533247Y0100281D01*
X0533307Y0100413D01*
X0533371Y0100543D01*
X0533438Y0100671D01*
X0533509Y0100797D01*
X0533583Y0100922D01*
X0533660Y0101044D01*
X0533741Y0101164D01*
X0533825Y0101282D01*
X0533913Y0101397D01*
X0534003Y0101510D01*
X0534097Y0101621D01*
X0534193Y0101729D01*
X0534293Y0101834D01*
X0534395Y0101936D01*
X0534500Y0102036D01*
X0534608Y0102132D01*
X0534719Y0102226D01*
X0534832Y0102316D01*
X0534947Y0102404D01*
X0535065Y0102488D01*
X0535185Y0102569D01*
X0535307Y0102646D01*
X0535431Y0102720D01*
X0535558Y0102791D01*
X0535686Y0102858D01*
X0535816Y0102922D01*
X0535948Y0102982D01*
X0536081Y0103038D01*
X0536216Y0103090D01*
X0536352Y0103139D01*
X0536490Y0103184D01*
X0536629Y0103226D01*
X0536768Y0103263D01*
X0536909Y0103297D01*
X0537051Y0103327D01*
X0537193Y0103352D01*
X0537336Y0103374D01*
X0537480Y0103392D01*
X0537624Y0103406D01*
X0537769Y0103416D01*
X0537913Y0103422D01*
X0538058Y0103424D01*
X0538203Y0103422D01*
X0538347Y0103416D01*
X0538492Y0103406D01*
X0538636Y0103392D01*
X0538780Y0103374D01*
X0538923Y0103352D01*
X0539065Y0103327D01*
X0539207Y0103297D01*
X0539348Y0103263D01*
X0539487Y0103226D01*
X0539626Y0103184D01*
X0539764Y0103139D01*
X0539900Y0103090D01*
X0540035Y0103038D01*
X0540168Y0102982D01*
X0540300Y0102922D01*
X0540430Y0102858D01*
X0540558Y0102791D01*
X0540684Y0102720D01*
X0540809Y0102646D01*
X0540931Y0102569D01*
X0541051Y0102488D01*
X0541169Y0102404D01*
X0541284Y0102316D01*
X0541397Y0102226D01*
X0541508Y0102132D01*
X0541616Y0102036D01*
X0541721Y0101936D01*
X0541823Y0101834D01*
X0541923Y0101729D01*
X0542019Y0101621D01*
X0542113Y0101510D01*
X0542203Y0101397D01*
X0542291Y0101282D01*
X0542375Y0101164D01*
X0542456Y0101044D01*
X0542533Y0100922D01*
X0542607Y0100797D01*
X0542678Y0100671D01*
X0542745Y0100543D01*
X0542809Y0100413D01*
X0542869Y0100281D01*
X0542925Y0100148D01*
X0542977Y0100013D01*
X0543026Y0099877D01*
X0543071Y0099739D01*
X0543113Y0099600D01*
X0543150Y0099461D01*
X0543184Y0099320D01*
X0543214Y0099178D01*
X0543239Y0099036D01*
X0543261Y0098893D01*
X0543279Y0098749D01*
X0543293Y0098605D01*
X0543303Y0098460D01*
X0543309Y0098316D01*
X0543311Y0098171D01*
X0543309Y0098026D01*
X0543303Y0097882D01*
X0543293Y0097737D01*
X0543279Y0097593D01*
X0543261Y0097449D01*
X0543239Y0097306D01*
X0543214Y0097164D01*
X0543184Y0097022D01*
X0543150Y0096881D01*
X0543113Y0096742D01*
X0543071Y0096603D01*
X0543026Y0096465D01*
X0542977Y0096329D01*
X0542925Y0096194D01*
X0542869Y0096061D01*
X0542809Y0095929D01*
X0542745Y0095799D01*
X0542678Y0095671D01*
X0542607Y0095545D01*
X0542533Y0095420D01*
X0542456Y0095298D01*
X0542375Y0095178D01*
X0542291Y0095060D01*
X0542203Y0094945D01*
X0542113Y0094832D01*
X0542019Y0094721D01*
X0541923Y0094613D01*
X0541823Y0094508D01*
X0541721Y0094406D01*
X0541616Y0094306D01*
X0541508Y0094210D01*
X0541397Y0094116D01*
X0541284Y0094026D01*
X0541169Y0093938D01*
X0541051Y0093854D01*
X0540931Y0093773D01*
X0540809Y0093696D01*
X0540685Y0093622D01*
X0540558Y0093551D01*
X0540430Y0093484D01*
X0540300Y0093420D01*
X0540168Y0093360D01*
X0540035Y0093304D01*
X0539900Y0093252D01*
X0539764Y0093203D01*
X0539626Y0093158D01*
X0539487Y0093116D01*
X0539348Y0093079D01*
X0539207Y0093045D01*
X0539065Y0093015D01*
X0538923Y0092990D01*
X0538780Y0092968D01*
X0538636Y0092950D01*
X0538492Y0092936D01*
X0538347Y0092926D01*
X0538203Y0092920D01*
X0538058Y0092918D01*
X0537913Y0092920D01*
X0537769Y0092926D01*
X0537624Y0092936D01*
X0537480Y0092950D01*
X0537336Y0092968D01*
X0537193Y0092990D01*
X0537051Y0093015D01*
X0536909Y0093045D01*
X0536768Y0093079D01*
X0536629Y0093116D01*
X0536490Y0093158D01*
X0536352Y0093203D01*
X0536216Y0093252D01*
X0536081Y0093304D01*
X0535948Y0093360D01*
X0535816Y0093420D01*
X0535686Y0093484D01*
X0535558Y0093551D01*
X0535431Y0093622D01*
X0535307Y0093696D01*
X0535185Y0093773D01*
X0535065Y0093854D01*
X0534947Y0093938D01*
X0534832Y0094026D01*
X0534719Y0094116D01*
X0534608Y0094210D01*
X0534500Y0094306D01*
X0534395Y0094406D01*
X0534293Y0094508D01*
X0534193Y0094613D01*
X0534097Y0094721D01*
X0534003Y0094832D01*
X0533913Y0094945D01*
X0533825Y0095060D01*
X0533741Y0095178D01*
X0533660Y0095298D01*
X0533583Y0095420D01*
X0533509Y0095544D01*
X0533438Y0095671D01*
X0533371Y0095799D01*
X0533307Y0095929D01*
X0533247Y0096061D01*
X0533191Y0096194D01*
X0533139Y0096329D01*
X0533090Y0096465D01*
X0533045Y0096603D01*
X0533003Y0096742D01*
X0532966Y0096881D01*
X0532932Y0097022D01*
X0532902Y0097164D01*
X0532877Y0097306D01*
X0532855Y0097449D01*
X0532837Y0097593D01*
X0532823Y0097737D01*
X0532813Y0097882D01*
X0532807Y0098026D01*
X0532805Y0098171D01*
X0510364Y0098171D02*
X0510366Y0098316D01*
X0510372Y0098460D01*
X0510382Y0098605D01*
X0510396Y0098749D01*
X0510414Y0098893D01*
X0510436Y0099036D01*
X0510461Y0099178D01*
X0510491Y0099320D01*
X0510525Y0099461D01*
X0510562Y0099600D01*
X0510604Y0099739D01*
X0510649Y0099877D01*
X0510698Y0100013D01*
X0510750Y0100148D01*
X0510806Y0100281D01*
X0510866Y0100413D01*
X0510930Y0100543D01*
X0510997Y0100671D01*
X0511068Y0100797D01*
X0511142Y0100922D01*
X0511219Y0101044D01*
X0511300Y0101164D01*
X0511384Y0101282D01*
X0511472Y0101397D01*
X0511562Y0101510D01*
X0511656Y0101621D01*
X0511752Y0101729D01*
X0511852Y0101834D01*
X0511954Y0101936D01*
X0512059Y0102036D01*
X0512167Y0102132D01*
X0512278Y0102226D01*
X0512391Y0102316D01*
X0512506Y0102404D01*
X0512624Y0102488D01*
X0512744Y0102569D01*
X0512866Y0102646D01*
X0512990Y0102720D01*
X0513117Y0102791D01*
X0513245Y0102858D01*
X0513375Y0102922D01*
X0513507Y0102982D01*
X0513640Y0103038D01*
X0513775Y0103090D01*
X0513911Y0103139D01*
X0514049Y0103184D01*
X0514188Y0103226D01*
X0514327Y0103263D01*
X0514468Y0103297D01*
X0514610Y0103327D01*
X0514752Y0103352D01*
X0514895Y0103374D01*
X0515039Y0103392D01*
X0515183Y0103406D01*
X0515328Y0103416D01*
X0515472Y0103422D01*
X0515617Y0103424D01*
X0515762Y0103422D01*
X0515906Y0103416D01*
X0516051Y0103406D01*
X0516195Y0103392D01*
X0516339Y0103374D01*
X0516482Y0103352D01*
X0516624Y0103327D01*
X0516766Y0103297D01*
X0516907Y0103263D01*
X0517046Y0103226D01*
X0517185Y0103184D01*
X0517323Y0103139D01*
X0517459Y0103090D01*
X0517594Y0103038D01*
X0517727Y0102982D01*
X0517859Y0102922D01*
X0517989Y0102858D01*
X0518117Y0102791D01*
X0518243Y0102720D01*
X0518368Y0102646D01*
X0518490Y0102569D01*
X0518610Y0102488D01*
X0518728Y0102404D01*
X0518843Y0102316D01*
X0518956Y0102226D01*
X0519067Y0102132D01*
X0519175Y0102036D01*
X0519280Y0101936D01*
X0519382Y0101834D01*
X0519482Y0101729D01*
X0519578Y0101621D01*
X0519672Y0101510D01*
X0519762Y0101397D01*
X0519850Y0101282D01*
X0519934Y0101164D01*
X0520015Y0101044D01*
X0520092Y0100922D01*
X0520166Y0100797D01*
X0520237Y0100671D01*
X0520304Y0100543D01*
X0520368Y0100413D01*
X0520428Y0100281D01*
X0520484Y0100148D01*
X0520536Y0100013D01*
X0520585Y0099877D01*
X0520630Y0099739D01*
X0520672Y0099600D01*
X0520709Y0099461D01*
X0520743Y0099320D01*
X0520773Y0099178D01*
X0520798Y0099036D01*
X0520820Y0098893D01*
X0520838Y0098749D01*
X0520852Y0098605D01*
X0520862Y0098460D01*
X0520868Y0098316D01*
X0520870Y0098171D01*
X0520868Y0098026D01*
X0520862Y0097882D01*
X0520852Y0097737D01*
X0520838Y0097593D01*
X0520820Y0097449D01*
X0520798Y0097306D01*
X0520773Y0097164D01*
X0520743Y0097022D01*
X0520709Y0096881D01*
X0520672Y0096742D01*
X0520630Y0096603D01*
X0520585Y0096465D01*
X0520536Y0096329D01*
X0520484Y0096194D01*
X0520428Y0096061D01*
X0520368Y0095929D01*
X0520304Y0095799D01*
X0520237Y0095671D01*
X0520166Y0095545D01*
X0520092Y0095420D01*
X0520015Y0095298D01*
X0519934Y0095178D01*
X0519850Y0095060D01*
X0519762Y0094945D01*
X0519672Y0094832D01*
X0519578Y0094721D01*
X0519482Y0094613D01*
X0519382Y0094508D01*
X0519280Y0094406D01*
X0519175Y0094306D01*
X0519067Y0094210D01*
X0518956Y0094116D01*
X0518843Y0094026D01*
X0518728Y0093938D01*
X0518610Y0093854D01*
X0518490Y0093773D01*
X0518368Y0093696D01*
X0518244Y0093622D01*
X0518117Y0093551D01*
X0517989Y0093484D01*
X0517859Y0093420D01*
X0517727Y0093360D01*
X0517594Y0093304D01*
X0517459Y0093252D01*
X0517323Y0093203D01*
X0517185Y0093158D01*
X0517046Y0093116D01*
X0516907Y0093079D01*
X0516766Y0093045D01*
X0516624Y0093015D01*
X0516482Y0092990D01*
X0516339Y0092968D01*
X0516195Y0092950D01*
X0516051Y0092936D01*
X0515906Y0092926D01*
X0515762Y0092920D01*
X0515617Y0092918D01*
X0515472Y0092920D01*
X0515328Y0092926D01*
X0515183Y0092936D01*
X0515039Y0092950D01*
X0514895Y0092968D01*
X0514752Y0092990D01*
X0514610Y0093015D01*
X0514468Y0093045D01*
X0514327Y0093079D01*
X0514188Y0093116D01*
X0514049Y0093158D01*
X0513911Y0093203D01*
X0513775Y0093252D01*
X0513640Y0093304D01*
X0513507Y0093360D01*
X0513375Y0093420D01*
X0513245Y0093484D01*
X0513117Y0093551D01*
X0512990Y0093622D01*
X0512866Y0093696D01*
X0512744Y0093773D01*
X0512624Y0093854D01*
X0512506Y0093938D01*
X0512391Y0094026D01*
X0512278Y0094116D01*
X0512167Y0094210D01*
X0512059Y0094306D01*
X0511954Y0094406D01*
X0511852Y0094508D01*
X0511752Y0094613D01*
X0511656Y0094721D01*
X0511562Y0094832D01*
X0511472Y0094945D01*
X0511384Y0095060D01*
X0511300Y0095178D01*
X0511219Y0095298D01*
X0511142Y0095420D01*
X0511068Y0095544D01*
X0510997Y0095671D01*
X0510930Y0095799D01*
X0510866Y0095929D01*
X0510806Y0096061D01*
X0510750Y0096194D01*
X0510698Y0096329D01*
X0510649Y0096465D01*
X0510604Y0096603D01*
X0510562Y0096742D01*
X0510525Y0096881D01*
X0510491Y0097022D01*
X0510461Y0097164D01*
X0510436Y0097306D01*
X0510414Y0097449D01*
X0510396Y0097593D01*
X0510382Y0097737D01*
X0510372Y0097882D01*
X0510366Y0098026D01*
X0510364Y0098171D01*
X0485167Y0098564D02*
X0485169Y0098709D01*
X0485175Y0098853D01*
X0485185Y0098998D01*
X0485199Y0099142D01*
X0485217Y0099286D01*
X0485239Y0099429D01*
X0485264Y0099571D01*
X0485294Y0099713D01*
X0485328Y0099854D01*
X0485365Y0099993D01*
X0485407Y0100132D01*
X0485452Y0100270D01*
X0485501Y0100406D01*
X0485553Y0100541D01*
X0485609Y0100674D01*
X0485669Y0100806D01*
X0485733Y0100936D01*
X0485800Y0101064D01*
X0485871Y0101190D01*
X0485945Y0101315D01*
X0486022Y0101437D01*
X0486103Y0101557D01*
X0486187Y0101675D01*
X0486275Y0101790D01*
X0486365Y0101903D01*
X0486459Y0102014D01*
X0486555Y0102122D01*
X0486655Y0102227D01*
X0486757Y0102329D01*
X0486862Y0102429D01*
X0486970Y0102525D01*
X0487081Y0102619D01*
X0487194Y0102709D01*
X0487309Y0102797D01*
X0487427Y0102881D01*
X0487547Y0102962D01*
X0487669Y0103039D01*
X0487793Y0103113D01*
X0487920Y0103184D01*
X0488048Y0103251D01*
X0488178Y0103315D01*
X0488310Y0103375D01*
X0488443Y0103431D01*
X0488578Y0103483D01*
X0488714Y0103532D01*
X0488852Y0103577D01*
X0488991Y0103619D01*
X0489130Y0103656D01*
X0489271Y0103690D01*
X0489413Y0103720D01*
X0489555Y0103745D01*
X0489698Y0103767D01*
X0489842Y0103785D01*
X0489986Y0103799D01*
X0490131Y0103809D01*
X0490275Y0103815D01*
X0490420Y0103817D01*
X0490565Y0103815D01*
X0490709Y0103809D01*
X0490854Y0103799D01*
X0490998Y0103785D01*
X0491142Y0103767D01*
X0491285Y0103745D01*
X0491427Y0103720D01*
X0491569Y0103690D01*
X0491710Y0103656D01*
X0491849Y0103619D01*
X0491988Y0103577D01*
X0492126Y0103532D01*
X0492262Y0103483D01*
X0492397Y0103431D01*
X0492530Y0103375D01*
X0492662Y0103315D01*
X0492792Y0103251D01*
X0492920Y0103184D01*
X0493046Y0103113D01*
X0493171Y0103039D01*
X0493293Y0102962D01*
X0493413Y0102881D01*
X0493531Y0102797D01*
X0493646Y0102709D01*
X0493759Y0102619D01*
X0493870Y0102525D01*
X0493978Y0102429D01*
X0494083Y0102329D01*
X0494185Y0102227D01*
X0494285Y0102122D01*
X0494381Y0102014D01*
X0494475Y0101903D01*
X0494565Y0101790D01*
X0494653Y0101675D01*
X0494737Y0101557D01*
X0494818Y0101437D01*
X0494895Y0101315D01*
X0494969Y0101190D01*
X0495040Y0101064D01*
X0495107Y0100936D01*
X0495171Y0100806D01*
X0495231Y0100674D01*
X0495287Y0100541D01*
X0495339Y0100406D01*
X0495388Y0100270D01*
X0495433Y0100132D01*
X0495475Y0099993D01*
X0495512Y0099854D01*
X0495546Y0099713D01*
X0495576Y0099571D01*
X0495601Y0099429D01*
X0495623Y0099286D01*
X0495641Y0099142D01*
X0495655Y0098998D01*
X0495665Y0098853D01*
X0495671Y0098709D01*
X0495673Y0098564D01*
X0495671Y0098419D01*
X0495665Y0098275D01*
X0495655Y0098130D01*
X0495641Y0097986D01*
X0495623Y0097842D01*
X0495601Y0097699D01*
X0495576Y0097557D01*
X0495546Y0097415D01*
X0495512Y0097274D01*
X0495475Y0097135D01*
X0495433Y0096996D01*
X0495388Y0096858D01*
X0495339Y0096722D01*
X0495287Y0096587D01*
X0495231Y0096454D01*
X0495171Y0096322D01*
X0495107Y0096192D01*
X0495040Y0096064D01*
X0494969Y0095938D01*
X0494895Y0095813D01*
X0494818Y0095691D01*
X0494737Y0095571D01*
X0494653Y0095453D01*
X0494565Y0095338D01*
X0494475Y0095225D01*
X0494381Y0095114D01*
X0494285Y0095006D01*
X0494185Y0094901D01*
X0494083Y0094799D01*
X0493978Y0094699D01*
X0493870Y0094603D01*
X0493759Y0094509D01*
X0493646Y0094419D01*
X0493531Y0094331D01*
X0493413Y0094247D01*
X0493293Y0094166D01*
X0493171Y0094089D01*
X0493047Y0094015D01*
X0492920Y0093944D01*
X0492792Y0093877D01*
X0492662Y0093813D01*
X0492530Y0093753D01*
X0492397Y0093697D01*
X0492262Y0093645D01*
X0492126Y0093596D01*
X0491988Y0093551D01*
X0491849Y0093509D01*
X0491710Y0093472D01*
X0491569Y0093438D01*
X0491427Y0093408D01*
X0491285Y0093383D01*
X0491142Y0093361D01*
X0490998Y0093343D01*
X0490854Y0093329D01*
X0490709Y0093319D01*
X0490565Y0093313D01*
X0490420Y0093311D01*
X0490275Y0093313D01*
X0490131Y0093319D01*
X0489986Y0093329D01*
X0489842Y0093343D01*
X0489698Y0093361D01*
X0489555Y0093383D01*
X0489413Y0093408D01*
X0489271Y0093438D01*
X0489130Y0093472D01*
X0488991Y0093509D01*
X0488852Y0093551D01*
X0488714Y0093596D01*
X0488578Y0093645D01*
X0488443Y0093697D01*
X0488310Y0093753D01*
X0488178Y0093813D01*
X0488048Y0093877D01*
X0487920Y0093944D01*
X0487793Y0094015D01*
X0487669Y0094089D01*
X0487547Y0094166D01*
X0487427Y0094247D01*
X0487309Y0094331D01*
X0487194Y0094419D01*
X0487081Y0094509D01*
X0486970Y0094603D01*
X0486862Y0094699D01*
X0486757Y0094799D01*
X0486655Y0094901D01*
X0486555Y0095006D01*
X0486459Y0095114D01*
X0486365Y0095225D01*
X0486275Y0095338D01*
X0486187Y0095453D01*
X0486103Y0095571D01*
X0486022Y0095691D01*
X0485945Y0095813D01*
X0485871Y0095937D01*
X0485800Y0096064D01*
X0485733Y0096192D01*
X0485669Y0096322D01*
X0485609Y0096454D01*
X0485553Y0096587D01*
X0485501Y0096722D01*
X0485452Y0096858D01*
X0485407Y0096996D01*
X0485365Y0097135D01*
X0485328Y0097274D01*
X0485294Y0097415D01*
X0485264Y0097557D01*
X0485239Y0097699D01*
X0485217Y0097842D01*
X0485199Y0097986D01*
X0485185Y0098130D01*
X0485175Y0098275D01*
X0485169Y0098419D01*
X0485167Y0098564D01*
D12*
X0490349Y0085926D02*
X0490569Y0085926D01*
X0538381Y0085218D02*
X0538601Y0085218D01*
X0539719Y0035218D02*
X0539939Y0035218D01*
D13*
X0487310Y0015926D02*
X0487310Y0012777D01*
X0498333Y0012777D02*
X0498333Y0015926D01*
X0495971Y0015926D01*
X0489672Y0015926D02*
X0487310Y0015926D01*
X0511640Y0015808D02*
X0511640Y0012659D01*
X0522664Y0012659D02*
X0522664Y0015808D01*
X0520302Y0015808D01*
X0514003Y0015808D02*
X0511640Y0015808D01*
X0533215Y0015926D02*
X0533215Y0012777D01*
X0544239Y0012777D02*
X0544239Y0015926D01*
X0541877Y0015926D01*
X0535577Y0015926D02*
X0533215Y0015926D01*
D14*
X0517113Y0041281D03*
X0517129Y0059734D03*
X0538255Y0070887D03*
X0490459Y0070060D03*
D15*
X0492664Y0039194D03*
X0492664Y0027344D03*
M02*
