G75*
%MOIN*%
%OFA0B0*%
%FSLAX25Y25*%
%IPPOS*%
%LPD*%
%AMOC8*
5,1,8,0,0,1.08239X$1,22.5*
%
%ADD10C,0.00000*%
%ADD11R,0.03937X0.04331*%
%ADD12R,0.08661X0.02362*%
%ADD13R,0.03150X0.03543*%
%ADD14R,0.04331X0.03937*%
%ADD15R,0.06731X0.06731*%
%ADD16OC8,0.06731*%
%ADD17R,0.12268X0.12268*%
%ADD18C,0.05000*%
%ADD19C,0.01000*%
%ADD20C,0.04400*%
%ADD21C,0.00394*%
D10*
X0483333Y0003682D02*
X0483333Y0104076D01*
X0546719Y0104076D01*
X0546719Y0003682D01*
X0483333Y0003682D01*
D11*
X0539829Y0031871D03*
X0517113Y0037934D03*
X0539829Y0038564D03*
X0517113Y0044627D03*
X0517129Y0056387D03*
X0517129Y0063080D03*
X0538255Y0067541D03*
X0538255Y0074234D03*
X0538491Y0081871D03*
X0538491Y0088564D03*
X0490459Y0089273D03*
X0490459Y0082580D03*
X0490459Y0073407D03*
X0490459Y0066714D03*
D12*
X0505499Y0072993D03*
X0525971Y0072993D03*
X0525971Y0077993D03*
X0505499Y0077993D03*
X0505499Y0082993D03*
X0525971Y0082993D03*
X0525971Y0087993D03*
X0505499Y0087993D03*
D13*
X0517152Y0017383D03*
X0538727Y0017501D03*
X0534987Y0009234D03*
X0542467Y0009234D03*
X0520892Y0009115D03*
X0513412Y0009115D03*
X0496562Y0009234D03*
X0489081Y0009234D03*
X0492822Y0017501D03*
D14*
X0496010Y0027344D03*
X0489318Y0027344D03*
X0489318Y0039194D03*
X0496010Y0039194D03*
D15*
X0527782Y0026911D03*
D16*
X0517940Y0026911D03*
X0508097Y0026911D03*
D17*
X0500223Y0054470D03*
X0535656Y0054470D03*
D18*
X0538058Y0098052D03*
X0515381Y0098446D03*
X0490302Y0098564D03*
D19*
X0490533Y0098182D01*
X0498633Y0098182D01*
X0504033Y0092782D01*
X0504033Y0089182D02*
X0499533Y0089182D01*
X0499533Y0081082D01*
X0502233Y0078382D01*
X0504933Y0078382D01*
X0505499Y0077993D01*
X0505833Y0077482D01*
X0508533Y0077482D01*
X0512133Y0073882D01*
X0523833Y0073882D01*
X0525971Y0072993D01*
X0525633Y0073882D01*
X0523833Y0073882D01*
X0523833Y0045082D01*
X0526646Y0041482D01*
X0526646Y0027082D01*
X0527782Y0026911D01*
X0516633Y0032482D02*
X0513033Y0028882D01*
X0513033Y0021682D01*
X0516633Y0018082D01*
X0517152Y0017383D01*
X0517533Y0018082D01*
X0525633Y0009982D01*
X0534633Y0009982D01*
X0534987Y0009234D01*
X0536433Y0013582D02*
X0540033Y0009982D01*
X0541833Y0009982D01*
X0542467Y0009234D01*
X0536433Y0013582D02*
X0527433Y0013582D01*
X0520892Y0009115D02*
X0520233Y0009982D01*
X0518433Y0009982D01*
X0501333Y0027082D01*
X0508533Y0034282D01*
X0508533Y0060382D01*
X0505833Y0063082D01*
X0505833Y0072982D01*
X0505499Y0072993D01*
X0504933Y0072982D01*
X0490533Y0072982D01*
X0490459Y0073407D01*
X0490533Y0073882D01*
X0490533Y0081982D01*
X0490459Y0082580D01*
X0490533Y0082882D01*
X0493233Y0085582D01*
X0495933Y0085582D01*
X0505499Y0082993D02*
X0505833Y0083782D01*
X0509433Y0083782D01*
X0513033Y0087382D01*
X0505499Y0087993D02*
X0504933Y0088282D01*
X0514833Y0098182D01*
X0515381Y0098446D01*
X0515733Y0098182D01*
X0525633Y0088282D01*
X0525971Y0087993D01*
X0526533Y0088282D01*
X0538233Y0088282D01*
X0538491Y0088564D01*
X0527433Y0081982D02*
X0526533Y0082882D01*
X0525971Y0082993D01*
X0527433Y0081982D02*
X0533733Y0081982D01*
X0533733Y0078382D01*
X0531933Y0074782D02*
X0529233Y0077482D01*
X0526533Y0077482D01*
X0525971Y0077993D01*
X0531933Y0074782D02*
X0531933Y0071182D01*
X0525633Y0064882D01*
X0525633Y0045982D01*
X0529233Y0042382D01*
X0529233Y0038782D01*
X0531933Y0036082D01*
X0530640Y0034395D01*
X0531933Y0036082D02*
X0535533Y0032482D01*
X0539133Y0032482D01*
X0539829Y0031871D01*
X0516633Y0032482D02*
X0516633Y0037882D01*
X0517113Y0037934D01*
X0516633Y0038782D01*
X0513033Y0042382D01*
X0513033Y0052282D01*
X0516633Y0055882D01*
X0517129Y0056387D01*
X0521133Y0058582D02*
X0517533Y0062182D01*
X0517129Y0063080D01*
X0516633Y0063082D01*
X0512133Y0067582D01*
X0490459Y0066714D02*
X0489633Y0066682D01*
X0489633Y0039682D01*
X0489318Y0039194D01*
X0489633Y0038782D01*
X0492333Y0036082D01*
X0492333Y0034282D01*
X0496010Y0039194D02*
X0496833Y0038782D01*
X0504933Y0038782D01*
X0521133Y0045082D02*
X0522933Y0043282D01*
X0522933Y0022582D01*
X0527433Y0018082D01*
X0538233Y0018082D01*
X0538727Y0017501D01*
X0538233Y0018082D02*
X0538233Y0022582D01*
X0511233Y0009982D02*
X0497733Y0023482D01*
X0493233Y0023482D01*
X0489633Y0019882D01*
X0489633Y0009982D01*
X0489081Y0009234D01*
X0496562Y0009234D02*
X0496833Y0009982D01*
X0496833Y0017182D01*
X0497733Y0018082D01*
X0493233Y0023482D02*
X0489633Y0027082D01*
X0489318Y0027344D01*
X0496010Y0027344D02*
X0496833Y0027082D01*
X0501333Y0027082D01*
X0527433Y0046882D02*
X0535533Y0038782D01*
X0534633Y0038782D01*
X0535533Y0038782D02*
X0539133Y0038782D01*
X0539829Y0038564D01*
X0521133Y0045082D02*
X0521133Y0058582D01*
X0527433Y0060382D02*
X0527433Y0046882D01*
X0517113Y0044627D02*
X0516633Y0045982D01*
X0516633Y0050482D01*
X0527433Y0060382D02*
X0533733Y0066682D01*
X0538233Y0066682D01*
X0538255Y0067541D01*
X0538255Y0074234D02*
X0538233Y0074782D01*
X0531933Y0074782D01*
X0533733Y0081982D02*
X0538233Y0081982D01*
X0538491Y0081871D01*
X0504933Y0088282D02*
X0504033Y0089182D01*
X0499533Y0089182D02*
X0490533Y0089182D01*
X0490459Y0089273D01*
X0523833Y0095482D02*
X0525633Y0097282D01*
X0537333Y0097282D01*
X0538058Y0098052D01*
X0513033Y0009982D02*
X0511233Y0009982D01*
X0513033Y0009982D02*
X0513412Y0009115D01*
D20*
X0527433Y0013582D03*
X0497733Y0018082D03*
X0538233Y0022582D03*
X0530640Y0034395D03*
X0534633Y0038782D03*
X0504933Y0038782D03*
X0492333Y0034282D03*
X0516633Y0050482D03*
X0512133Y0067582D03*
X0533733Y0078382D03*
X0495933Y0085582D03*
X0513033Y0087382D03*
X0504033Y0092782D03*
X0523833Y0095482D03*
D21*
X0520636Y0095460D02*
X0520573Y0095460D01*
X0520636Y0095396D02*
X0518703Y0097330D01*
X0518877Y0097751D01*
X0518877Y0099142D01*
X0518345Y0100427D01*
X0517361Y0101411D01*
X0516076Y0101943D01*
X0514685Y0101943D01*
X0513400Y0101411D01*
X0512416Y0100427D01*
X0511884Y0099142D01*
X0511884Y0097751D01*
X0512001Y0097467D01*
X0507230Y0092696D01*
X0507230Y0093418D01*
X0506743Y0094593D01*
X0505844Y0095493D01*
X0504669Y0095979D01*
X0503397Y0095979D01*
X0503083Y0095849D01*
X0499253Y0099679D01*
X0493625Y0099679D01*
X0493266Y0100545D01*
X0492283Y0101529D01*
X0490997Y0102061D01*
X0489606Y0102061D01*
X0488321Y0101529D01*
X0487337Y0100545D01*
X0486805Y0099260D01*
X0486805Y0097869D01*
X0487337Y0096583D01*
X0488321Y0095600D01*
X0489606Y0095067D01*
X0490997Y0095067D01*
X0492283Y0095600D01*
X0493266Y0096583D01*
X0493309Y0096686D01*
X0498013Y0096686D01*
X0500967Y0093732D01*
X0500836Y0093418D01*
X0500836Y0092146D01*
X0501323Y0090971D01*
X0501615Y0090679D01*
X0493425Y0090679D01*
X0493425Y0091851D01*
X0492841Y0092435D01*
X0488078Y0092435D01*
X0487494Y0091851D01*
X0487494Y0086695D01*
X0488078Y0086111D01*
X0491645Y0086111D01*
X0491276Y0085742D01*
X0488078Y0085742D01*
X0487494Y0085158D01*
X0487494Y0080002D01*
X0488078Y0079418D01*
X0489036Y0079418D01*
X0489036Y0076569D01*
X0488078Y0076569D01*
X0487494Y0075985D01*
X0487494Y0070829D01*
X0488078Y0070245D01*
X0492841Y0070245D01*
X0493425Y0070829D01*
X0493425Y0071486D01*
X0500171Y0071486D01*
X0500171Y0071399D01*
X0500755Y0070815D01*
X0504336Y0070815D01*
X0504336Y0062462D01*
X0505198Y0061600D01*
X0493676Y0061600D01*
X0493092Y0061017D01*
X0493092Y0047923D01*
X0493676Y0047339D01*
X0506770Y0047339D01*
X0507036Y0047606D01*
X0507036Y0041200D01*
X0506744Y0041493D01*
X0505569Y0041979D01*
X0504297Y0041979D01*
X0503122Y0041493D01*
X0502223Y0040593D01*
X0502093Y0040279D01*
X0499173Y0040279D01*
X0499173Y0041576D01*
X0498589Y0042160D01*
X0493432Y0042160D01*
X0492848Y0041576D01*
X0492848Y0037684D01*
X0492480Y0038053D01*
X0492480Y0041576D01*
X0491896Y0042160D01*
X0491130Y0042160D01*
X0491130Y0063552D01*
X0492841Y0063552D01*
X0493425Y0064136D01*
X0493425Y0069292D01*
X0492841Y0069876D01*
X0488078Y0069876D01*
X0487494Y0069292D01*
X0487494Y0064136D01*
X0488078Y0063552D01*
X0488136Y0063552D01*
X0488136Y0042160D01*
X0486739Y0042160D01*
X0486155Y0041576D01*
X0486155Y0036813D01*
X0486739Y0036229D01*
X0489759Y0036229D01*
X0489623Y0036093D01*
X0489136Y0034918D01*
X0489136Y0033646D01*
X0489623Y0032471D01*
X0490522Y0031572D01*
X0491697Y0031086D01*
X0492969Y0031086D01*
X0494144Y0031572D01*
X0495043Y0032471D01*
X0495530Y0033646D01*
X0495530Y0034918D01*
X0495043Y0036093D01*
X0494908Y0036229D01*
X0498589Y0036229D01*
X0499173Y0036813D01*
X0499173Y0037286D01*
X0502093Y0037286D01*
X0502223Y0036971D01*
X0503122Y0036072D01*
X0504297Y0035586D01*
X0505569Y0035586D01*
X0506744Y0036072D01*
X0507036Y0036365D01*
X0507036Y0034902D01*
X0500713Y0028579D01*
X0499173Y0028579D01*
X0499173Y0029725D01*
X0498589Y0030309D01*
X0493432Y0030309D01*
X0492848Y0029725D01*
X0492848Y0025984D01*
X0492480Y0026353D01*
X0492480Y0029725D01*
X0491896Y0030309D01*
X0486739Y0030309D01*
X0486155Y0029725D01*
X0486155Y0024962D01*
X0486739Y0024378D01*
X0490220Y0024378D01*
X0491116Y0023482D01*
X0488136Y0020502D01*
X0488136Y0012002D01*
X0487094Y0012002D01*
X0486510Y0011418D01*
X0486510Y0007049D01*
X0487094Y0006465D01*
X0491069Y0006465D01*
X0491653Y0007049D01*
X0491653Y0011418D01*
X0491130Y0011941D01*
X0491130Y0014733D01*
X0494809Y0014733D01*
X0495336Y0015260D01*
X0495336Y0012002D01*
X0494574Y0012002D01*
X0493990Y0011418D01*
X0493990Y0007049D01*
X0494574Y0006465D01*
X0498549Y0006465D01*
X0499133Y0007049D01*
X0499133Y0011418D01*
X0498549Y0012002D01*
X0498330Y0012002D01*
X0498330Y0014886D01*
X0498369Y0014886D01*
X0499544Y0015372D01*
X0500443Y0016271D01*
X0500930Y0017446D01*
X0500930Y0018169D01*
X0510613Y0008486D01*
X0510840Y0008486D01*
X0510840Y0006931D01*
X0511424Y0006347D01*
X0515400Y0006347D01*
X0515984Y0006931D01*
X0515984Y0010315D01*
X0517813Y0008486D01*
X0518321Y0008486D01*
X0518321Y0006931D01*
X0518905Y0006347D01*
X0522880Y0006347D01*
X0523464Y0006931D01*
X0523464Y0010035D01*
X0525013Y0008486D01*
X0532415Y0008486D01*
X0532415Y0007049D01*
X0532999Y0006465D01*
X0536975Y0006465D01*
X0537559Y0007049D01*
X0537559Y0010340D01*
X0539413Y0008486D01*
X0539896Y0008486D01*
X0539896Y0007049D01*
X0540479Y0006465D01*
X0544455Y0006465D01*
X0545039Y0007049D01*
X0545039Y0011418D01*
X0544455Y0012002D01*
X0540479Y0012002D01*
X0540305Y0011828D01*
X0537930Y0014202D01*
X0537400Y0014733D01*
X0540715Y0014733D01*
X0541299Y0015317D01*
X0541299Y0019686D01*
X0540715Y0020270D01*
X0540442Y0020270D01*
X0540943Y0020771D01*
X0541430Y0021946D01*
X0541430Y0023218D01*
X0540943Y0024393D01*
X0540044Y0025293D01*
X0538869Y0025779D01*
X0537597Y0025779D01*
X0536422Y0025293D01*
X0535523Y0024393D01*
X0535036Y0023218D01*
X0535036Y0021946D01*
X0535523Y0020771D01*
X0536382Y0019913D01*
X0536155Y0019686D01*
X0536155Y0019579D01*
X0528053Y0019579D01*
X0525084Y0022549D01*
X0531560Y0022549D01*
X0532144Y0023132D01*
X0532144Y0030689D01*
X0531560Y0031273D01*
X0531456Y0031273D01*
X0532450Y0031685D01*
X0533332Y0032567D01*
X0534913Y0030986D01*
X0536864Y0030986D01*
X0536864Y0029293D01*
X0537448Y0028709D01*
X0542211Y0028709D01*
X0542795Y0029293D01*
X0542795Y0034450D01*
X0542211Y0035034D01*
X0537448Y0035034D01*
X0536864Y0034450D01*
X0536864Y0033979D01*
X0536153Y0033979D01*
X0534547Y0035586D01*
X0535269Y0035586D01*
X0536444Y0036072D01*
X0536864Y0036492D01*
X0536864Y0035986D01*
X0537448Y0035402D01*
X0542211Y0035402D01*
X0542795Y0035986D01*
X0542795Y0041143D01*
X0542211Y0041726D01*
X0537448Y0041726D01*
X0536864Y0041143D01*
X0536864Y0041073D01*
X0536444Y0041493D01*
X0535269Y0041979D01*
X0534453Y0041979D01*
X0528930Y0047502D01*
X0528930Y0047518D01*
X0529109Y0047339D01*
X0542203Y0047339D01*
X0542787Y0047923D01*
X0542787Y0061017D01*
X0542203Y0061600D01*
X0530768Y0061600D01*
X0534353Y0065186D01*
X0535289Y0065186D01*
X0535289Y0064962D01*
X0535873Y0064378D01*
X0540636Y0064378D01*
X0541220Y0064962D01*
X0541220Y0070119D01*
X0540636Y0070703D01*
X0535873Y0070703D01*
X0535289Y0070119D01*
X0535289Y0068179D01*
X0533113Y0068179D01*
X0527130Y0062196D01*
X0527130Y0064262D01*
X0532553Y0069686D01*
X0533430Y0070562D01*
X0533430Y0073286D01*
X0535289Y0073286D01*
X0535289Y0071655D01*
X0535873Y0071071D01*
X0540636Y0071071D01*
X0541220Y0071655D01*
X0541220Y0076812D01*
X0540636Y0077396D01*
X0536785Y0077396D01*
X0536930Y0077746D01*
X0536930Y0078709D01*
X0540872Y0078709D01*
X0541456Y0079293D01*
X0541456Y0084450D01*
X0540872Y0085034D01*
X0536109Y0085034D01*
X0535525Y0084450D01*
X0535525Y0083479D01*
X0531299Y0083479D01*
X0531299Y0084587D01*
X0530715Y0085171D01*
X0521227Y0085171D01*
X0520644Y0084587D01*
X0520644Y0081399D01*
X0521227Y0080815D01*
X0526483Y0080815D01*
X0526813Y0080486D01*
X0531315Y0080486D01*
X0531023Y0080193D01*
X0530926Y0079960D01*
X0530715Y0080171D01*
X0521227Y0080171D01*
X0520644Y0079587D01*
X0520644Y0076399D01*
X0521227Y0075815D01*
X0528783Y0075815D01*
X0529428Y0075171D01*
X0526461Y0075171D01*
X0526253Y0075379D01*
X0525954Y0075379D01*
X0525681Y0075502D01*
X0525359Y0075379D01*
X0524132Y0075379D01*
X0523836Y0075503D01*
X0523537Y0075379D01*
X0512753Y0075379D01*
X0510826Y0077306D01*
X0510826Y0079587D01*
X0510242Y0080171D01*
X0502561Y0080171D01*
X0501917Y0080815D01*
X0510242Y0080815D01*
X0510826Y0081399D01*
X0510826Y0083058D01*
X0512083Y0084316D01*
X0512397Y0084186D01*
X0513669Y0084186D01*
X0514844Y0084672D01*
X0515743Y0085571D01*
X0516230Y0086746D01*
X0516230Y0088018D01*
X0515743Y0089193D01*
X0514844Y0090093D01*
X0513669Y0090579D01*
X0512397Y0090579D01*
X0511222Y0090093D01*
X0510772Y0089642D01*
X0510242Y0090171D01*
X0508939Y0090171D01*
X0514001Y0095233D01*
X0514685Y0094949D01*
X0516076Y0094949D01*
X0516623Y0095176D01*
X0521628Y0090171D01*
X0521227Y0090171D01*
X0520644Y0089587D01*
X0520644Y0086399D01*
X0521227Y0085815D01*
X0530715Y0085815D01*
X0531299Y0086399D01*
X0531299Y0086786D01*
X0535525Y0086786D01*
X0535525Y0085986D01*
X0536109Y0085402D01*
X0540872Y0085402D01*
X0541456Y0085986D01*
X0541456Y0091143D01*
X0540872Y0091726D01*
X0536109Y0091726D01*
X0535525Y0091143D01*
X0535525Y0089779D01*
X0531107Y0089779D01*
X0530715Y0090171D01*
X0525861Y0090171D01*
X0523747Y0092286D01*
X0524469Y0092286D01*
X0525644Y0092772D01*
X0526543Y0093671D01*
X0527030Y0094846D01*
X0527030Y0095786D01*
X0535379Y0095786D01*
X0536077Y0095088D01*
X0537362Y0094556D01*
X0538753Y0094556D01*
X0540039Y0095088D01*
X0541022Y0096072D01*
X0541555Y0097357D01*
X0541555Y0098748D01*
X0541022Y0100033D01*
X0540039Y0101017D01*
X0538753Y0101549D01*
X0537362Y0101549D01*
X0536077Y0101017D01*
X0535093Y0100033D01*
X0534574Y0098779D01*
X0525013Y0098779D01*
X0524783Y0098549D01*
X0524469Y0098679D01*
X0523197Y0098679D01*
X0522022Y0098193D01*
X0521123Y0097293D01*
X0520636Y0096118D01*
X0520636Y0095396D01*
X0520636Y0095852D02*
X0520180Y0095852D01*
X0519788Y0096244D02*
X0520689Y0096244D01*
X0520851Y0096637D02*
X0519396Y0096637D01*
X0519004Y0097029D02*
X0521014Y0097029D01*
X0521251Y0097421D02*
X0518741Y0097421D01*
X0518877Y0097813D02*
X0521643Y0097813D01*
X0522054Y0098205D02*
X0518877Y0098205D01*
X0518877Y0098598D02*
X0523001Y0098598D01*
X0524666Y0098598D02*
X0524832Y0098598D01*
X0518877Y0098990D02*
X0534661Y0098990D01*
X0534824Y0099382D02*
X0518778Y0099382D01*
X0518615Y0099774D02*
X0534986Y0099774D01*
X0535227Y0100167D02*
X0518453Y0100167D01*
X0518213Y0100559D02*
X0535619Y0100559D01*
X0536011Y0100951D02*
X0517821Y0100951D01*
X0517429Y0101343D02*
X0536865Y0101343D01*
X0539251Y0101343D02*
X0545722Y0101343D01*
X0545722Y0100951D02*
X0540104Y0100951D01*
X0540497Y0100559D02*
X0545722Y0100559D01*
X0545722Y0100167D02*
X0540889Y0100167D01*
X0541129Y0099774D02*
X0545722Y0099774D01*
X0545722Y0099382D02*
X0541292Y0099382D01*
X0541454Y0098990D02*
X0545722Y0098990D01*
X0545722Y0098598D02*
X0541555Y0098598D01*
X0541555Y0098205D02*
X0545722Y0098205D01*
X0545722Y0097813D02*
X0541555Y0097813D01*
X0541555Y0097421D02*
X0545722Y0097421D01*
X0545722Y0097029D02*
X0541419Y0097029D01*
X0541256Y0096637D02*
X0545722Y0096637D01*
X0545722Y0096244D02*
X0541094Y0096244D01*
X0540803Y0095852D02*
X0545722Y0095852D01*
X0545722Y0095460D02*
X0540411Y0095460D01*
X0539990Y0095068D02*
X0545722Y0095068D01*
X0545722Y0094676D02*
X0539043Y0094676D01*
X0537073Y0094676D02*
X0526959Y0094676D01*
X0527030Y0095068D02*
X0536126Y0095068D01*
X0535705Y0095460D02*
X0527030Y0095460D01*
X0526797Y0094283D02*
X0545722Y0094283D01*
X0545722Y0093891D02*
X0526634Y0093891D01*
X0526371Y0093499D02*
X0545722Y0093499D01*
X0545722Y0093107D02*
X0525979Y0093107D01*
X0525505Y0092715D02*
X0545722Y0092715D01*
X0545722Y0092322D02*
X0524558Y0092322D01*
X0524102Y0091930D02*
X0545722Y0091930D01*
X0545722Y0091538D02*
X0541061Y0091538D01*
X0541453Y0091146D02*
X0545722Y0091146D01*
X0545722Y0090753D02*
X0541456Y0090753D01*
X0541456Y0090361D02*
X0545722Y0090361D01*
X0545722Y0089969D02*
X0541456Y0089969D01*
X0541456Y0089577D02*
X0545722Y0089577D01*
X0545722Y0089185D02*
X0541456Y0089185D01*
X0541456Y0088792D02*
X0545722Y0088792D01*
X0545722Y0088400D02*
X0541456Y0088400D01*
X0541456Y0088008D02*
X0545722Y0088008D01*
X0545722Y0087616D02*
X0541456Y0087616D01*
X0541456Y0087224D02*
X0545722Y0087224D01*
X0545722Y0086831D02*
X0541456Y0086831D01*
X0541456Y0086439D02*
X0545722Y0086439D01*
X0545722Y0086047D02*
X0541456Y0086047D01*
X0541125Y0085655D02*
X0545722Y0085655D01*
X0545722Y0085262D02*
X0515434Y0085262D01*
X0515778Y0085655D02*
X0535857Y0085655D01*
X0535525Y0086047D02*
X0530946Y0086047D01*
X0531299Y0086439D02*
X0535525Y0086439D01*
X0535946Y0084870D02*
X0531016Y0084870D01*
X0531299Y0084478D02*
X0535554Y0084478D01*
X0535525Y0084086D02*
X0531299Y0084086D01*
X0531299Y0083694D02*
X0535525Y0083694D01*
X0541035Y0084870D02*
X0545722Y0084870D01*
X0545722Y0084478D02*
X0541428Y0084478D01*
X0541456Y0084086D02*
X0545722Y0084086D01*
X0545722Y0083694D02*
X0541456Y0083694D01*
X0541456Y0083301D02*
X0545722Y0083301D01*
X0545722Y0082909D02*
X0541456Y0082909D01*
X0541456Y0082517D02*
X0545722Y0082517D01*
X0545722Y0082125D02*
X0541456Y0082125D01*
X0541456Y0081733D02*
X0545722Y0081733D01*
X0545722Y0081340D02*
X0541456Y0081340D01*
X0541456Y0080948D02*
X0545722Y0080948D01*
X0545722Y0080556D02*
X0541456Y0080556D01*
X0541456Y0080164D02*
X0545722Y0080164D01*
X0545722Y0079772D02*
X0541456Y0079772D01*
X0541456Y0079379D02*
X0545722Y0079379D01*
X0545722Y0078987D02*
X0541150Y0078987D01*
X0536930Y0078595D02*
X0545722Y0078595D01*
X0545722Y0078203D02*
X0536930Y0078203D01*
X0536930Y0077810D02*
X0545722Y0077810D01*
X0545722Y0077418D02*
X0536794Y0077418D01*
X0541006Y0077026D02*
X0545722Y0077026D01*
X0545722Y0076634D02*
X0541220Y0076634D01*
X0541220Y0076242D02*
X0545722Y0076242D01*
X0545722Y0075849D02*
X0541220Y0075849D01*
X0541220Y0075457D02*
X0545722Y0075457D01*
X0545722Y0075065D02*
X0541220Y0075065D01*
X0541220Y0074673D02*
X0545722Y0074673D01*
X0545722Y0074281D02*
X0541220Y0074281D01*
X0541220Y0073888D02*
X0545722Y0073888D01*
X0545722Y0073496D02*
X0541220Y0073496D01*
X0541220Y0073104D02*
X0545722Y0073104D01*
X0545722Y0072712D02*
X0541220Y0072712D01*
X0541220Y0072319D02*
X0545722Y0072319D01*
X0545722Y0071927D02*
X0541220Y0071927D01*
X0541100Y0071535D02*
X0545722Y0071535D01*
X0545722Y0071143D02*
X0540708Y0071143D01*
X0540980Y0070358D02*
X0545722Y0070358D01*
X0545722Y0069966D02*
X0541220Y0069966D01*
X0541220Y0069574D02*
X0545722Y0069574D01*
X0545722Y0069182D02*
X0541220Y0069182D01*
X0541220Y0068790D02*
X0545722Y0068790D01*
X0545722Y0068397D02*
X0541220Y0068397D01*
X0541220Y0068005D02*
X0545722Y0068005D01*
X0545722Y0067613D02*
X0541220Y0067613D01*
X0541220Y0067221D02*
X0545722Y0067221D01*
X0545722Y0066829D02*
X0541220Y0066829D01*
X0541220Y0066436D02*
X0545722Y0066436D01*
X0545722Y0066044D02*
X0541220Y0066044D01*
X0541220Y0065652D02*
X0545722Y0065652D01*
X0545722Y0065260D02*
X0541220Y0065260D01*
X0541125Y0064867D02*
X0545722Y0064867D01*
X0545722Y0064475D02*
X0540733Y0064475D01*
X0535776Y0064475D02*
X0533643Y0064475D01*
X0533251Y0064083D02*
X0545722Y0064083D01*
X0545722Y0063691D02*
X0532859Y0063691D01*
X0532466Y0063299D02*
X0545722Y0063299D01*
X0545722Y0062906D02*
X0532074Y0062906D01*
X0531682Y0062514D02*
X0545722Y0062514D01*
X0545722Y0062122D02*
X0531290Y0062122D01*
X0530898Y0061730D02*
X0545722Y0061730D01*
X0545722Y0061338D02*
X0542466Y0061338D01*
X0542787Y0060945D02*
X0545722Y0060945D01*
X0545722Y0060553D02*
X0542787Y0060553D01*
X0542787Y0060161D02*
X0545722Y0060161D01*
X0545722Y0059769D02*
X0542787Y0059769D01*
X0542787Y0059376D02*
X0545722Y0059376D01*
X0545722Y0058984D02*
X0542787Y0058984D01*
X0542787Y0058592D02*
X0545722Y0058592D01*
X0545722Y0058200D02*
X0542787Y0058200D01*
X0542787Y0057808D02*
X0545722Y0057808D01*
X0545722Y0057415D02*
X0542787Y0057415D01*
X0542787Y0057023D02*
X0545722Y0057023D01*
X0545722Y0056631D02*
X0542787Y0056631D01*
X0542787Y0056239D02*
X0545722Y0056239D01*
X0545722Y0055847D02*
X0542787Y0055847D01*
X0542787Y0055454D02*
X0545722Y0055454D01*
X0545722Y0055062D02*
X0542787Y0055062D01*
X0542787Y0054670D02*
X0545722Y0054670D01*
X0545722Y0054278D02*
X0542787Y0054278D01*
X0542787Y0053886D02*
X0545722Y0053886D01*
X0545722Y0053493D02*
X0542787Y0053493D01*
X0542787Y0053101D02*
X0545722Y0053101D01*
X0545722Y0052709D02*
X0542787Y0052709D01*
X0542787Y0052317D02*
X0545722Y0052317D01*
X0545722Y0051924D02*
X0542787Y0051924D01*
X0542787Y0051532D02*
X0545722Y0051532D01*
X0545722Y0051140D02*
X0542787Y0051140D01*
X0542787Y0050748D02*
X0545722Y0050748D01*
X0545722Y0050356D02*
X0542787Y0050356D01*
X0542787Y0049963D02*
X0545722Y0049963D01*
X0545722Y0049571D02*
X0542787Y0049571D01*
X0542787Y0049179D02*
X0545722Y0049179D01*
X0545722Y0048787D02*
X0542787Y0048787D01*
X0542787Y0048395D02*
X0545722Y0048395D01*
X0545722Y0048002D02*
X0542787Y0048002D01*
X0542474Y0047610D02*
X0545722Y0047610D01*
X0545722Y0047218D02*
X0529215Y0047218D01*
X0529607Y0046826D02*
X0545722Y0046826D01*
X0545722Y0046433D02*
X0529999Y0046433D01*
X0530391Y0046041D02*
X0545722Y0046041D01*
X0545722Y0045649D02*
X0530783Y0045649D01*
X0531176Y0045257D02*
X0545722Y0045257D01*
X0545722Y0044865D02*
X0531568Y0044865D01*
X0531960Y0044472D02*
X0545722Y0044472D01*
X0545722Y0044080D02*
X0532352Y0044080D01*
X0532745Y0043688D02*
X0545722Y0043688D01*
X0545722Y0043296D02*
X0533137Y0043296D01*
X0533529Y0042904D02*
X0545722Y0042904D01*
X0545722Y0042511D02*
X0533921Y0042511D01*
X0534313Y0042119D02*
X0545722Y0042119D01*
X0545722Y0041727D02*
X0535878Y0041727D01*
X0536602Y0041335D02*
X0537056Y0041335D01*
X0531830Y0040369D02*
X0530730Y0041469D01*
X0530730Y0039402D01*
X0531436Y0038696D01*
X0531436Y0039418D01*
X0531830Y0040369D01*
X0531743Y0040158D02*
X0530730Y0040158D01*
X0530730Y0039766D02*
X0531580Y0039766D01*
X0531436Y0039374D02*
X0530759Y0039374D01*
X0531151Y0038981D02*
X0531436Y0038981D01*
X0528811Y0037088D02*
X0528143Y0036419D01*
X0528143Y0037756D01*
X0528613Y0037286D01*
X0528811Y0037088D01*
X0528744Y0037020D02*
X0528143Y0037020D01*
X0528143Y0036628D02*
X0528352Y0036628D01*
X0528486Y0037413D02*
X0528143Y0037413D01*
X0525149Y0037413D02*
X0524430Y0037413D01*
X0524430Y0037805D02*
X0525149Y0037805D01*
X0525149Y0038197D02*
X0524430Y0038197D01*
X0524430Y0038589D02*
X0525149Y0038589D01*
X0525149Y0038981D02*
X0524430Y0038981D01*
X0524430Y0039374D02*
X0525149Y0039374D01*
X0525149Y0039766D02*
X0524430Y0039766D01*
X0524430Y0040158D02*
X0525149Y0040158D01*
X0525149Y0040550D02*
X0524430Y0040550D01*
X0524430Y0040943D02*
X0525149Y0040943D01*
X0525149Y0040967D02*
X0524430Y0041887D01*
X0524430Y0031273D01*
X0525149Y0031273D01*
X0525149Y0040967D01*
X0524862Y0041335D02*
X0524430Y0041335D01*
X0524430Y0041727D02*
X0524555Y0041727D01*
X0521436Y0041727D02*
X0519756Y0041727D01*
X0519494Y0041465D02*
X0520078Y0042049D01*
X0520078Y0044021D01*
X0520513Y0043586D01*
X0521436Y0042662D01*
X0521436Y0029583D01*
X0519747Y0031273D01*
X0517541Y0031273D01*
X0518130Y0031862D01*
X0518130Y0034772D01*
X0519494Y0034772D01*
X0520078Y0035356D01*
X0520078Y0040513D01*
X0519494Y0041097D01*
X0516436Y0041097D01*
X0516067Y0041465D01*
X0519494Y0041465D01*
X0519648Y0040943D02*
X0521436Y0040943D01*
X0521436Y0041335D02*
X0516198Y0041335D01*
X0514148Y0039151D02*
X0512413Y0040886D01*
X0511536Y0041762D01*
X0511536Y0052902D01*
X0514163Y0055529D01*
X0514163Y0058965D01*
X0514747Y0059549D01*
X0518050Y0059549D01*
X0517681Y0059918D01*
X0514747Y0059918D01*
X0514163Y0060502D01*
X0514163Y0063436D01*
X0513083Y0064516D01*
X0512769Y0064386D01*
X0511497Y0064386D01*
X0510322Y0064872D01*
X0509423Y0065771D01*
X0508936Y0066946D01*
X0508936Y0068218D01*
X0509423Y0069393D01*
X0510322Y0070293D01*
X0511497Y0070779D01*
X0512769Y0070779D01*
X0513944Y0070293D01*
X0514843Y0069393D01*
X0515330Y0068218D01*
X0515330Y0066946D01*
X0515200Y0066632D01*
X0515590Y0066242D01*
X0519510Y0066242D01*
X0520094Y0065658D01*
X0520094Y0061739D01*
X0522336Y0059496D01*
X0522336Y0070815D01*
X0521227Y0070815D01*
X0520644Y0071399D01*
X0520644Y0072386D01*
X0511513Y0072386D01*
X0510826Y0073073D01*
X0510826Y0071399D01*
X0510242Y0070815D01*
X0507330Y0070815D01*
X0507330Y0063702D01*
X0509153Y0061879D01*
X0510030Y0061002D01*
X0510030Y0033662D01*
X0507641Y0031273D01*
X0509904Y0031273D01*
X0511605Y0029571D01*
X0512413Y0030379D01*
X0515136Y0033102D01*
X0515136Y0034772D01*
X0514731Y0034772D01*
X0514148Y0035356D01*
X0514148Y0039151D01*
X0514148Y0038981D02*
X0510030Y0038981D01*
X0510030Y0038589D02*
X0514148Y0038589D01*
X0514148Y0038197D02*
X0510030Y0038197D01*
X0510030Y0037805D02*
X0514148Y0037805D01*
X0514148Y0037413D02*
X0510030Y0037413D01*
X0510030Y0037020D02*
X0514148Y0037020D01*
X0514148Y0036628D02*
X0510030Y0036628D01*
X0510030Y0036236D02*
X0514148Y0036236D01*
X0514148Y0035844D02*
X0510030Y0035844D01*
X0510030Y0035452D02*
X0514148Y0035452D01*
X0514444Y0035059D02*
X0510030Y0035059D01*
X0510030Y0034667D02*
X0515136Y0034667D01*
X0515136Y0034275D02*
X0510030Y0034275D01*
X0510030Y0033883D02*
X0515136Y0033883D01*
X0515136Y0033490D02*
X0509858Y0033490D01*
X0509466Y0033098D02*
X0515132Y0033098D01*
X0514740Y0032706D02*
X0509074Y0032706D01*
X0508682Y0032314D02*
X0514348Y0032314D01*
X0513956Y0031922D02*
X0508289Y0031922D01*
X0507897Y0031529D02*
X0513564Y0031529D01*
X0513171Y0031137D02*
X0510040Y0031137D01*
X0510432Y0030745D02*
X0512779Y0030745D01*
X0512387Y0030353D02*
X0510824Y0030353D01*
X0511216Y0029961D02*
X0511995Y0029961D01*
X0517797Y0031529D02*
X0521436Y0031529D01*
X0521436Y0031137D02*
X0519882Y0031137D01*
X0520274Y0030745D02*
X0521436Y0030745D01*
X0521436Y0030353D02*
X0520667Y0030353D01*
X0521059Y0029961D02*
X0521436Y0029961D01*
X0524430Y0031529D02*
X0525149Y0031529D01*
X0525149Y0031922D02*
X0524430Y0031922D01*
X0524430Y0032314D02*
X0525149Y0032314D01*
X0525149Y0032706D02*
X0524430Y0032706D01*
X0524430Y0033098D02*
X0525149Y0033098D01*
X0525149Y0033490D02*
X0524430Y0033490D01*
X0524430Y0033883D02*
X0525149Y0033883D01*
X0525149Y0034275D02*
X0524430Y0034275D01*
X0524430Y0034667D02*
X0525149Y0034667D01*
X0525149Y0035059D02*
X0524430Y0035059D01*
X0524430Y0035452D02*
X0525149Y0035452D01*
X0525149Y0035844D02*
X0524430Y0035844D01*
X0524430Y0036236D02*
X0525149Y0036236D01*
X0525149Y0036628D02*
X0524430Y0036628D01*
X0524430Y0037020D02*
X0525149Y0037020D01*
X0521436Y0037020D02*
X0520078Y0037020D01*
X0520078Y0036628D02*
X0521436Y0036628D01*
X0521436Y0036236D02*
X0520078Y0036236D01*
X0520078Y0035844D02*
X0521436Y0035844D01*
X0521436Y0035452D02*
X0520078Y0035452D01*
X0519781Y0035059D02*
X0521436Y0035059D01*
X0521436Y0034667D02*
X0518130Y0034667D01*
X0518130Y0034275D02*
X0521436Y0034275D01*
X0521436Y0033883D02*
X0518130Y0033883D01*
X0518130Y0033490D02*
X0521436Y0033490D01*
X0521436Y0033098D02*
X0518130Y0033098D01*
X0518130Y0032706D02*
X0521436Y0032706D01*
X0521436Y0032314D02*
X0518130Y0032314D01*
X0518130Y0031922D02*
X0521436Y0031922D01*
X0528143Y0031922D02*
X0528592Y0031922D01*
X0528829Y0031685D02*
X0528143Y0032371D01*
X0528143Y0031273D01*
X0529823Y0031273D01*
X0528829Y0031685D01*
X0529204Y0031529D02*
X0528143Y0031529D01*
X0528143Y0032314D02*
X0528200Y0032314D01*
X0531696Y0031137D02*
X0534762Y0031137D01*
X0534369Y0031529D02*
X0532075Y0031529D01*
X0532687Y0031922D02*
X0533977Y0031922D01*
X0533585Y0032314D02*
X0533080Y0032314D01*
X0532088Y0030745D02*
X0536864Y0030745D01*
X0536864Y0030353D02*
X0532144Y0030353D01*
X0532144Y0029961D02*
X0536864Y0029961D01*
X0536864Y0029568D02*
X0532144Y0029568D01*
X0532144Y0029176D02*
X0536981Y0029176D01*
X0537373Y0028784D02*
X0532144Y0028784D01*
X0532144Y0028392D02*
X0545722Y0028392D01*
X0545722Y0028784D02*
X0542286Y0028784D01*
X0542678Y0029176D02*
X0545722Y0029176D01*
X0545722Y0029568D02*
X0542795Y0029568D01*
X0542795Y0029961D02*
X0545722Y0029961D01*
X0545722Y0030353D02*
X0542795Y0030353D01*
X0542795Y0030745D02*
X0545722Y0030745D01*
X0545722Y0031137D02*
X0542795Y0031137D01*
X0542795Y0031529D02*
X0545722Y0031529D01*
X0545722Y0031922D02*
X0542795Y0031922D01*
X0542795Y0032314D02*
X0545722Y0032314D01*
X0545722Y0032706D02*
X0542795Y0032706D01*
X0542795Y0033098D02*
X0545722Y0033098D01*
X0545722Y0033490D02*
X0542795Y0033490D01*
X0542795Y0033883D02*
X0545722Y0033883D01*
X0545722Y0034275D02*
X0542795Y0034275D01*
X0542577Y0034667D02*
X0545722Y0034667D01*
X0545722Y0035059D02*
X0535073Y0035059D01*
X0535465Y0034667D02*
X0537082Y0034667D01*
X0536864Y0034275D02*
X0535858Y0034275D01*
X0535893Y0035844D02*
X0537006Y0035844D01*
X0536864Y0036236D02*
X0536608Y0036236D01*
X0537398Y0035452D02*
X0534681Y0035452D01*
X0542260Y0035452D02*
X0545722Y0035452D01*
X0545722Y0035844D02*
X0542653Y0035844D01*
X0542795Y0036236D02*
X0545722Y0036236D01*
X0545722Y0036628D02*
X0542795Y0036628D01*
X0542795Y0037020D02*
X0545722Y0037020D01*
X0545722Y0037413D02*
X0542795Y0037413D01*
X0542795Y0037805D02*
X0545722Y0037805D01*
X0545722Y0038197D02*
X0542795Y0038197D01*
X0542795Y0038589D02*
X0545722Y0038589D01*
X0545722Y0038981D02*
X0542795Y0038981D01*
X0542795Y0039374D02*
X0545722Y0039374D01*
X0545722Y0039766D02*
X0542795Y0039766D01*
X0542795Y0040158D02*
X0545722Y0040158D01*
X0545722Y0040550D02*
X0542795Y0040550D01*
X0542795Y0040943D02*
X0545722Y0040943D01*
X0545722Y0041335D02*
X0542603Y0041335D01*
X0531649Y0040550D02*
X0530730Y0040550D01*
X0530730Y0040943D02*
X0531256Y0040943D01*
X0530864Y0041335D02*
X0530730Y0041335D01*
X0521436Y0042119D02*
X0520078Y0042119D01*
X0520078Y0042511D02*
X0521436Y0042511D01*
X0521195Y0042904D02*
X0520078Y0042904D01*
X0520078Y0043296D02*
X0520803Y0043296D01*
X0520411Y0043688D02*
X0520078Y0043688D01*
X0511964Y0041335D02*
X0510030Y0041335D01*
X0510030Y0041727D02*
X0511572Y0041727D01*
X0511536Y0042119D02*
X0510030Y0042119D01*
X0510030Y0042511D02*
X0511536Y0042511D01*
X0511536Y0042904D02*
X0510030Y0042904D01*
X0510030Y0043296D02*
X0511536Y0043296D01*
X0511536Y0043688D02*
X0510030Y0043688D01*
X0510030Y0044080D02*
X0511536Y0044080D01*
X0511536Y0044472D02*
X0510030Y0044472D01*
X0510030Y0044865D02*
X0511536Y0044865D01*
X0511536Y0045257D02*
X0510030Y0045257D01*
X0510030Y0045649D02*
X0511536Y0045649D01*
X0511536Y0046041D02*
X0510030Y0046041D01*
X0510030Y0046433D02*
X0511536Y0046433D01*
X0511536Y0046826D02*
X0510030Y0046826D01*
X0510030Y0047218D02*
X0511536Y0047218D01*
X0511536Y0047610D02*
X0510030Y0047610D01*
X0510030Y0048002D02*
X0511536Y0048002D01*
X0511536Y0048395D02*
X0510030Y0048395D01*
X0510030Y0048787D02*
X0511536Y0048787D01*
X0511536Y0049179D02*
X0510030Y0049179D01*
X0510030Y0049571D02*
X0511536Y0049571D01*
X0511536Y0049963D02*
X0510030Y0049963D01*
X0510030Y0050356D02*
X0511536Y0050356D01*
X0511536Y0050748D02*
X0510030Y0050748D01*
X0510030Y0051140D02*
X0511536Y0051140D01*
X0511536Y0051532D02*
X0510030Y0051532D01*
X0510030Y0051924D02*
X0511536Y0051924D01*
X0511536Y0052317D02*
X0510030Y0052317D01*
X0510030Y0052709D02*
X0511536Y0052709D01*
X0511735Y0053101D02*
X0510030Y0053101D01*
X0510030Y0053493D02*
X0512127Y0053493D01*
X0512520Y0053886D02*
X0510030Y0053886D01*
X0510030Y0054278D02*
X0512912Y0054278D01*
X0513304Y0054670D02*
X0510030Y0054670D01*
X0510030Y0055062D02*
X0513696Y0055062D01*
X0514088Y0055454D02*
X0510030Y0055454D01*
X0510030Y0055847D02*
X0514163Y0055847D01*
X0514163Y0056239D02*
X0510030Y0056239D01*
X0510030Y0056631D02*
X0514163Y0056631D01*
X0514163Y0057023D02*
X0510030Y0057023D01*
X0510030Y0057415D02*
X0514163Y0057415D01*
X0514163Y0057808D02*
X0510030Y0057808D01*
X0510030Y0058200D02*
X0514163Y0058200D01*
X0514163Y0058592D02*
X0510030Y0058592D01*
X0510030Y0058984D02*
X0514182Y0058984D01*
X0514574Y0059376D02*
X0510030Y0059376D01*
X0510030Y0059769D02*
X0517830Y0059769D01*
X0520495Y0061338D02*
X0522336Y0061338D01*
X0522336Y0061730D02*
X0520103Y0061730D01*
X0520094Y0062122D02*
X0522336Y0062122D01*
X0522336Y0062514D02*
X0520094Y0062514D01*
X0520094Y0062906D02*
X0522336Y0062906D01*
X0522336Y0063299D02*
X0520094Y0063299D01*
X0520094Y0063691D02*
X0522336Y0063691D01*
X0522336Y0064083D02*
X0520094Y0064083D01*
X0520094Y0064475D02*
X0522336Y0064475D01*
X0522336Y0064867D02*
X0520094Y0064867D01*
X0520094Y0065260D02*
X0522336Y0065260D01*
X0522336Y0065652D02*
X0520094Y0065652D01*
X0519708Y0066044D02*
X0522336Y0066044D01*
X0522336Y0066436D02*
X0515396Y0066436D01*
X0515281Y0066829D02*
X0522336Y0066829D01*
X0522336Y0067221D02*
X0515330Y0067221D01*
X0515330Y0067613D02*
X0522336Y0067613D01*
X0522336Y0068005D02*
X0515330Y0068005D01*
X0515256Y0068397D02*
X0522336Y0068397D01*
X0522336Y0068790D02*
X0515094Y0068790D01*
X0514931Y0069182D02*
X0522336Y0069182D01*
X0522336Y0069574D02*
X0514663Y0069574D01*
X0514270Y0069966D02*
X0522336Y0069966D01*
X0522336Y0070358D02*
X0513785Y0070358D01*
X0512838Y0070751D02*
X0522336Y0070751D01*
X0520900Y0071143D02*
X0510570Y0071143D01*
X0510826Y0071535D02*
X0520644Y0071535D01*
X0520644Y0071927D02*
X0510826Y0071927D01*
X0510826Y0072319D02*
X0520644Y0072319D01*
X0525330Y0070815D02*
X0525330Y0066696D01*
X0529450Y0070815D01*
X0525330Y0070815D01*
X0525330Y0070751D02*
X0529385Y0070751D01*
X0528993Y0070358D02*
X0525330Y0070358D01*
X0525330Y0069966D02*
X0528600Y0069966D01*
X0528208Y0069574D02*
X0525330Y0069574D01*
X0525330Y0069182D02*
X0527816Y0069182D01*
X0527424Y0068790D02*
X0525330Y0068790D01*
X0525330Y0068397D02*
X0527031Y0068397D01*
X0526639Y0068005D02*
X0525330Y0068005D01*
X0525330Y0067613D02*
X0526247Y0067613D01*
X0525855Y0067221D02*
X0525330Y0067221D01*
X0525330Y0066829D02*
X0525463Y0066829D01*
X0528520Y0065652D02*
X0530586Y0065652D01*
X0530978Y0066044D02*
X0528912Y0066044D01*
X0529304Y0066436D02*
X0531370Y0066436D01*
X0531763Y0066829D02*
X0529696Y0066829D01*
X0530089Y0067221D02*
X0532155Y0067221D01*
X0532547Y0067613D02*
X0530481Y0067613D01*
X0530873Y0068005D02*
X0532939Y0068005D01*
X0532050Y0069182D02*
X0535289Y0069182D01*
X0535289Y0069574D02*
X0532442Y0069574D01*
X0532834Y0069966D02*
X0535289Y0069966D01*
X0535529Y0070358D02*
X0533226Y0070358D01*
X0533430Y0070751D02*
X0545722Y0070751D01*
X0535802Y0071143D02*
X0533430Y0071143D01*
X0533430Y0071535D02*
X0535409Y0071535D01*
X0535289Y0071927D02*
X0533430Y0071927D01*
X0533430Y0072319D02*
X0535289Y0072319D01*
X0535289Y0072712D02*
X0533430Y0072712D01*
X0533430Y0073104D02*
X0535289Y0073104D01*
X0529142Y0075457D02*
X0525781Y0075457D01*
X0525564Y0075457D02*
X0523945Y0075457D01*
X0523726Y0075457D02*
X0512675Y0075457D01*
X0512283Y0075849D02*
X0521194Y0075849D01*
X0520801Y0076242D02*
X0511891Y0076242D01*
X0511499Y0076634D02*
X0520644Y0076634D01*
X0520644Y0077026D02*
X0511107Y0077026D01*
X0510826Y0077418D02*
X0520644Y0077418D01*
X0520644Y0077810D02*
X0510826Y0077810D01*
X0510826Y0078203D02*
X0520644Y0078203D01*
X0520644Y0078595D02*
X0510826Y0078595D01*
X0510826Y0078987D02*
X0520644Y0078987D01*
X0520644Y0079379D02*
X0510826Y0079379D01*
X0510642Y0079772D02*
X0520828Y0079772D01*
X0521220Y0080164D02*
X0510250Y0080164D01*
X0510375Y0080948D02*
X0521095Y0080948D01*
X0520703Y0081340D02*
X0510767Y0081340D01*
X0510826Y0081733D02*
X0520644Y0081733D01*
X0520644Y0082125D02*
X0510826Y0082125D01*
X0510826Y0082517D02*
X0520644Y0082517D01*
X0520644Y0082909D02*
X0510826Y0082909D01*
X0511069Y0083301D02*
X0520644Y0083301D01*
X0520644Y0083694D02*
X0511461Y0083694D01*
X0511854Y0084086D02*
X0520644Y0084086D01*
X0520644Y0084478D02*
X0514375Y0084478D01*
X0515042Y0084870D02*
X0520926Y0084870D01*
X0520996Y0086047D02*
X0515940Y0086047D01*
X0516103Y0086439D02*
X0520644Y0086439D01*
X0520644Y0086831D02*
X0516230Y0086831D01*
X0516230Y0087224D02*
X0520644Y0087224D01*
X0520644Y0087616D02*
X0516230Y0087616D01*
X0516230Y0088008D02*
X0520644Y0088008D01*
X0520644Y0088400D02*
X0516072Y0088400D01*
X0515910Y0088792D02*
X0520644Y0088792D01*
X0520644Y0089185D02*
X0515747Y0089185D01*
X0515360Y0089577D02*
X0520644Y0089577D01*
X0521025Y0089969D02*
X0514968Y0089969D01*
X0514195Y0090361D02*
X0521438Y0090361D01*
X0521045Y0090753D02*
X0509521Y0090753D01*
X0509129Y0090361D02*
X0511871Y0090361D01*
X0511099Y0089969D02*
X0510445Y0089969D01*
X0501541Y0090753D02*
X0493425Y0090753D01*
X0493425Y0091146D02*
X0501251Y0091146D01*
X0501089Y0091538D02*
X0493425Y0091538D01*
X0493346Y0091930D02*
X0500926Y0091930D01*
X0500836Y0092322D02*
X0492954Y0092322D01*
X0487965Y0092322D02*
X0484330Y0092322D01*
X0484330Y0091930D02*
X0487573Y0091930D01*
X0487494Y0091538D02*
X0484330Y0091538D01*
X0484330Y0091146D02*
X0487494Y0091146D01*
X0487494Y0090753D02*
X0484330Y0090753D01*
X0484330Y0090361D02*
X0487494Y0090361D01*
X0487494Y0089969D02*
X0484330Y0089969D01*
X0484330Y0089577D02*
X0487494Y0089577D01*
X0487494Y0089185D02*
X0484330Y0089185D01*
X0484330Y0088792D02*
X0487494Y0088792D01*
X0487494Y0088400D02*
X0484330Y0088400D01*
X0484330Y0088008D02*
X0487494Y0088008D01*
X0487494Y0087616D02*
X0484330Y0087616D01*
X0484330Y0087224D02*
X0487494Y0087224D01*
X0487494Y0086831D02*
X0484330Y0086831D01*
X0484330Y0086439D02*
X0487749Y0086439D01*
X0487990Y0085655D02*
X0484330Y0085655D01*
X0484330Y0086047D02*
X0491581Y0086047D01*
X0493425Y0087595D02*
X0493425Y0087686D01*
X0493515Y0087686D01*
X0493425Y0087595D01*
X0493425Y0087616D02*
X0493446Y0087616D01*
X0501030Y0085815D02*
X0509350Y0085815D01*
X0508813Y0085279D01*
X0506138Y0085279D01*
X0505847Y0085402D01*
X0505542Y0085279D01*
X0505213Y0085279D01*
X0505105Y0085171D01*
X0501030Y0085171D01*
X0501030Y0085815D01*
X0501030Y0085655D02*
X0509189Y0085655D01*
X0505197Y0085262D02*
X0501030Y0085262D01*
X0498036Y0083165D02*
X0498036Y0080462D01*
X0498913Y0079586D01*
X0500171Y0078328D01*
X0500171Y0076399D01*
X0500755Y0075815D01*
X0508083Y0075815D01*
X0508728Y0075171D01*
X0500755Y0075171D01*
X0500171Y0074587D01*
X0500171Y0074479D01*
X0493425Y0074479D01*
X0493425Y0075985D01*
X0492841Y0076569D01*
X0492030Y0076569D01*
X0492030Y0079418D01*
X0492841Y0079418D01*
X0493425Y0080002D01*
X0493425Y0083570D01*
X0494122Y0082872D01*
X0495297Y0082386D01*
X0496569Y0082386D01*
X0497744Y0082872D01*
X0498036Y0083165D01*
X0498036Y0082909D02*
X0497781Y0082909D01*
X0498036Y0082517D02*
X0496887Y0082517D01*
X0498036Y0082125D02*
X0493425Y0082125D01*
X0493425Y0082517D02*
X0494980Y0082517D01*
X0494085Y0082909D02*
X0493425Y0082909D01*
X0493425Y0083301D02*
X0493693Y0083301D01*
X0493425Y0081733D02*
X0498036Y0081733D01*
X0498036Y0081340D02*
X0493425Y0081340D01*
X0493425Y0080948D02*
X0498036Y0080948D01*
X0498036Y0080556D02*
X0493425Y0080556D01*
X0493425Y0080164D02*
X0498335Y0080164D01*
X0498727Y0079772D02*
X0493194Y0079772D01*
X0492030Y0079379D02*
X0499120Y0079379D01*
X0499512Y0078987D02*
X0492030Y0078987D01*
X0492030Y0078595D02*
X0499904Y0078595D01*
X0500171Y0078203D02*
X0492030Y0078203D01*
X0492030Y0077810D02*
X0500171Y0077810D01*
X0500171Y0077418D02*
X0492030Y0077418D01*
X0492030Y0077026D02*
X0500171Y0077026D01*
X0500171Y0076634D02*
X0492030Y0076634D01*
X0493168Y0076242D02*
X0500329Y0076242D01*
X0500721Y0075849D02*
X0493425Y0075849D01*
X0493425Y0075457D02*
X0508442Y0075457D01*
X0500649Y0075065D02*
X0493425Y0075065D01*
X0493425Y0074673D02*
X0500256Y0074673D01*
X0510826Y0072712D02*
X0511187Y0072712D01*
X0511428Y0070751D02*
X0507330Y0070751D01*
X0507330Y0070358D02*
X0510482Y0070358D01*
X0509996Y0069966D02*
X0507330Y0069966D01*
X0507330Y0069574D02*
X0509604Y0069574D01*
X0509336Y0069182D02*
X0507330Y0069182D01*
X0507330Y0068790D02*
X0509173Y0068790D01*
X0509011Y0068397D02*
X0507330Y0068397D01*
X0507330Y0068005D02*
X0508936Y0068005D01*
X0508936Y0067613D02*
X0507330Y0067613D01*
X0507330Y0067221D02*
X0508936Y0067221D01*
X0508985Y0066829D02*
X0507330Y0066829D01*
X0507330Y0066436D02*
X0509148Y0066436D01*
X0509310Y0066044D02*
X0507330Y0066044D01*
X0507330Y0065652D02*
X0509543Y0065652D01*
X0509935Y0065260D02*
X0507330Y0065260D01*
X0507330Y0064867D02*
X0510334Y0064867D01*
X0511281Y0064475D02*
X0507330Y0064475D01*
X0507330Y0064083D02*
X0513516Y0064083D01*
X0513908Y0063691D02*
X0507342Y0063691D01*
X0507734Y0063299D02*
X0514163Y0063299D01*
X0514163Y0062906D02*
X0508126Y0062906D01*
X0508518Y0062514D02*
X0514163Y0062514D01*
X0514163Y0062122D02*
X0508911Y0062122D01*
X0509303Y0061730D02*
X0514163Y0061730D01*
X0514163Y0061338D02*
X0509695Y0061338D01*
X0510030Y0060945D02*
X0514163Y0060945D01*
X0514163Y0060553D02*
X0510030Y0060553D01*
X0510030Y0060161D02*
X0514504Y0060161D01*
X0520887Y0060945D02*
X0522336Y0060945D01*
X0522336Y0060553D02*
X0521279Y0060553D01*
X0521672Y0060161D02*
X0522336Y0060161D01*
X0522336Y0059769D02*
X0522064Y0059769D01*
X0527130Y0062514D02*
X0527448Y0062514D01*
X0527130Y0062906D02*
X0527841Y0062906D01*
X0528233Y0063299D02*
X0527130Y0063299D01*
X0527130Y0063691D02*
X0528625Y0063691D01*
X0529017Y0064083D02*
X0527130Y0064083D01*
X0527343Y0064475D02*
X0529409Y0064475D01*
X0529802Y0064867D02*
X0527735Y0064867D01*
X0528127Y0065260D02*
X0530194Y0065260D01*
X0534035Y0064867D02*
X0535384Y0064867D01*
X0535289Y0068397D02*
X0531265Y0068397D01*
X0531657Y0068790D02*
X0535289Y0068790D01*
X0513124Y0064475D02*
X0512986Y0064475D01*
X0505069Y0061730D02*
X0491130Y0061730D01*
X0491130Y0062122D02*
X0504677Y0062122D01*
X0504336Y0062514D02*
X0491130Y0062514D01*
X0491130Y0062906D02*
X0504336Y0062906D01*
X0504336Y0063299D02*
X0491130Y0063299D01*
X0492980Y0063691D02*
X0504336Y0063691D01*
X0504336Y0064083D02*
X0493372Y0064083D01*
X0493425Y0064475D02*
X0504336Y0064475D01*
X0504336Y0064867D02*
X0493425Y0064867D01*
X0493425Y0065260D02*
X0504336Y0065260D01*
X0504336Y0065652D02*
X0493425Y0065652D01*
X0493425Y0066044D02*
X0504336Y0066044D01*
X0504336Y0066436D02*
X0493425Y0066436D01*
X0493425Y0066829D02*
X0504336Y0066829D01*
X0504336Y0067221D02*
X0493425Y0067221D01*
X0493425Y0067613D02*
X0504336Y0067613D01*
X0504336Y0068005D02*
X0493425Y0068005D01*
X0493425Y0068397D02*
X0504336Y0068397D01*
X0504336Y0068790D02*
X0493425Y0068790D01*
X0493425Y0069182D02*
X0504336Y0069182D01*
X0504336Y0069574D02*
X0493143Y0069574D01*
X0492955Y0070358D02*
X0504336Y0070358D01*
X0504336Y0069966D02*
X0484330Y0069966D01*
X0484330Y0069574D02*
X0487776Y0069574D01*
X0487494Y0069182D02*
X0484330Y0069182D01*
X0484330Y0068790D02*
X0487494Y0068790D01*
X0487494Y0068397D02*
X0484330Y0068397D01*
X0484330Y0068005D02*
X0487494Y0068005D01*
X0487494Y0067613D02*
X0484330Y0067613D01*
X0484330Y0067221D02*
X0487494Y0067221D01*
X0487494Y0066829D02*
X0484330Y0066829D01*
X0484330Y0066436D02*
X0487494Y0066436D01*
X0487494Y0066044D02*
X0484330Y0066044D01*
X0484330Y0065652D02*
X0487494Y0065652D01*
X0487494Y0065260D02*
X0484330Y0065260D01*
X0484330Y0064867D02*
X0487494Y0064867D01*
X0487494Y0064475D02*
X0484330Y0064475D01*
X0484330Y0064083D02*
X0487547Y0064083D01*
X0487939Y0063691D02*
X0484330Y0063691D01*
X0484330Y0063299D02*
X0488136Y0063299D01*
X0488136Y0062906D02*
X0484330Y0062906D01*
X0484330Y0062514D02*
X0488136Y0062514D01*
X0488136Y0062122D02*
X0484330Y0062122D01*
X0484330Y0061730D02*
X0488136Y0061730D01*
X0488136Y0061338D02*
X0484330Y0061338D01*
X0484330Y0060945D02*
X0488136Y0060945D01*
X0488136Y0060553D02*
X0484330Y0060553D01*
X0484330Y0060161D02*
X0488136Y0060161D01*
X0488136Y0059769D02*
X0484330Y0059769D01*
X0484330Y0059376D02*
X0488136Y0059376D01*
X0488136Y0058984D02*
X0484330Y0058984D01*
X0484330Y0058592D02*
X0488136Y0058592D01*
X0488136Y0058200D02*
X0484330Y0058200D01*
X0484330Y0057808D02*
X0488136Y0057808D01*
X0488136Y0057415D02*
X0484330Y0057415D01*
X0484330Y0057023D02*
X0488136Y0057023D01*
X0488136Y0056631D02*
X0484330Y0056631D01*
X0484330Y0056239D02*
X0488136Y0056239D01*
X0488136Y0055847D02*
X0484330Y0055847D01*
X0484330Y0055454D02*
X0488136Y0055454D01*
X0488136Y0055062D02*
X0484330Y0055062D01*
X0484330Y0054670D02*
X0488136Y0054670D01*
X0488136Y0054278D02*
X0484330Y0054278D01*
X0484330Y0053886D02*
X0488136Y0053886D01*
X0488136Y0053493D02*
X0484330Y0053493D01*
X0484330Y0053101D02*
X0488136Y0053101D01*
X0488136Y0052709D02*
X0484330Y0052709D01*
X0484330Y0052317D02*
X0488136Y0052317D01*
X0488136Y0051924D02*
X0484330Y0051924D01*
X0484330Y0051532D02*
X0488136Y0051532D01*
X0488136Y0051140D02*
X0484330Y0051140D01*
X0484330Y0050748D02*
X0488136Y0050748D01*
X0488136Y0050356D02*
X0484330Y0050356D01*
X0484330Y0049963D02*
X0488136Y0049963D01*
X0488136Y0049571D02*
X0484330Y0049571D01*
X0484330Y0049179D02*
X0488136Y0049179D01*
X0488136Y0048787D02*
X0484330Y0048787D01*
X0484330Y0048395D02*
X0488136Y0048395D01*
X0488136Y0048002D02*
X0484330Y0048002D01*
X0484330Y0047610D02*
X0488136Y0047610D01*
X0488136Y0047218D02*
X0484330Y0047218D01*
X0484330Y0046826D02*
X0488136Y0046826D01*
X0488136Y0046433D02*
X0484330Y0046433D01*
X0484330Y0046041D02*
X0488136Y0046041D01*
X0488136Y0045649D02*
X0484330Y0045649D01*
X0484330Y0045257D02*
X0488136Y0045257D01*
X0488136Y0044865D02*
X0484330Y0044865D01*
X0484330Y0044472D02*
X0488136Y0044472D01*
X0488136Y0044080D02*
X0484330Y0044080D01*
X0484330Y0043688D02*
X0488136Y0043688D01*
X0488136Y0043296D02*
X0484330Y0043296D01*
X0484330Y0042904D02*
X0488136Y0042904D01*
X0488136Y0042511D02*
X0484330Y0042511D01*
X0484330Y0042119D02*
X0486699Y0042119D01*
X0486307Y0041727D02*
X0484330Y0041727D01*
X0484330Y0041335D02*
X0486155Y0041335D01*
X0486155Y0040943D02*
X0484330Y0040943D01*
X0484330Y0040550D02*
X0486155Y0040550D01*
X0486155Y0040158D02*
X0484330Y0040158D01*
X0484330Y0039766D02*
X0486155Y0039766D01*
X0486155Y0039374D02*
X0484330Y0039374D01*
X0484330Y0038981D02*
X0486155Y0038981D01*
X0486155Y0038589D02*
X0484330Y0038589D01*
X0484330Y0038197D02*
X0486155Y0038197D01*
X0486155Y0037805D02*
X0484330Y0037805D01*
X0484330Y0037413D02*
X0486155Y0037413D01*
X0486155Y0037020D02*
X0484330Y0037020D01*
X0484330Y0036628D02*
X0486340Y0036628D01*
X0486732Y0036236D02*
X0484330Y0036236D01*
X0484330Y0035844D02*
X0489520Y0035844D01*
X0489357Y0035452D02*
X0484330Y0035452D01*
X0484330Y0035059D02*
X0489195Y0035059D01*
X0489136Y0034667D02*
X0484330Y0034667D01*
X0484330Y0034275D02*
X0489136Y0034275D01*
X0489136Y0033883D02*
X0484330Y0033883D01*
X0484330Y0033490D02*
X0489201Y0033490D01*
X0489364Y0033098D02*
X0484330Y0033098D01*
X0484330Y0032706D02*
X0489526Y0032706D01*
X0489781Y0032314D02*
X0484330Y0032314D01*
X0484330Y0031922D02*
X0490173Y0031922D01*
X0490626Y0031529D02*
X0484330Y0031529D01*
X0484330Y0031137D02*
X0491573Y0031137D01*
X0492244Y0029961D02*
X0493084Y0029961D01*
X0492848Y0029568D02*
X0492480Y0029568D01*
X0492480Y0029176D02*
X0492848Y0029176D01*
X0492848Y0028784D02*
X0492480Y0028784D01*
X0492480Y0028392D02*
X0492848Y0028392D01*
X0492848Y0028000D02*
X0492480Y0028000D01*
X0492480Y0027607D02*
X0492848Y0027607D01*
X0492848Y0027215D02*
X0492480Y0027215D01*
X0492480Y0026823D02*
X0492848Y0026823D01*
X0492848Y0026431D02*
X0492480Y0026431D01*
X0492794Y0026038D02*
X0492848Y0026038D01*
X0498771Y0024561D02*
X0499173Y0024962D01*
X0499173Y0025586D01*
X0500713Y0025586D01*
X0514415Y0011884D01*
X0511449Y0011884D01*
X0499230Y0024102D01*
X0498771Y0024561D01*
X0498863Y0024470D02*
X0501829Y0024470D01*
X0501437Y0024862D02*
X0499072Y0024862D01*
X0499173Y0025254D02*
X0501045Y0025254D01*
X0502221Y0024077D02*
X0499255Y0024077D01*
X0499647Y0023685D02*
X0502614Y0023685D01*
X0503006Y0023293D02*
X0500040Y0023293D01*
X0500432Y0022901D02*
X0503398Y0022901D01*
X0503790Y0022509D02*
X0500824Y0022509D01*
X0501216Y0022116D02*
X0504182Y0022116D01*
X0504575Y0021724D02*
X0501608Y0021724D01*
X0502001Y0021332D02*
X0504967Y0021332D01*
X0505359Y0020940D02*
X0502393Y0020940D01*
X0502785Y0020547D02*
X0505751Y0020547D01*
X0506144Y0020155D02*
X0503177Y0020155D01*
X0503569Y0019763D02*
X0506536Y0019763D01*
X0506928Y0019371D02*
X0503962Y0019371D01*
X0504354Y0018979D02*
X0507320Y0018979D01*
X0507712Y0018586D02*
X0504746Y0018586D01*
X0505138Y0018194D02*
X0508105Y0018194D01*
X0508497Y0017802D02*
X0505531Y0017802D01*
X0505923Y0017410D02*
X0508889Y0017410D01*
X0509281Y0017018D02*
X0506315Y0017018D01*
X0506707Y0016625D02*
X0509673Y0016625D01*
X0510066Y0016233D02*
X0507099Y0016233D01*
X0507492Y0015841D02*
X0510458Y0015841D01*
X0510850Y0015449D02*
X0507884Y0015449D01*
X0508276Y0015057D02*
X0511242Y0015057D01*
X0511635Y0014664D02*
X0508668Y0014664D01*
X0509060Y0014272D02*
X0512027Y0014272D01*
X0512419Y0013880D02*
X0509453Y0013880D01*
X0509845Y0013488D02*
X0512811Y0013488D01*
X0513203Y0013095D02*
X0510237Y0013095D01*
X0510629Y0012703D02*
X0513596Y0012703D01*
X0513988Y0012311D02*
X0511022Y0012311D01*
X0511414Y0011919D02*
X0514380Y0011919D01*
X0517045Y0013488D02*
X0520011Y0013488D01*
X0519619Y0013880D02*
X0516653Y0013880D01*
X0516260Y0014272D02*
X0519227Y0014272D01*
X0518884Y0014615D02*
X0515918Y0014615D01*
X0518777Y0011756D01*
X0518905Y0011884D01*
X0521615Y0011884D01*
X0518884Y0014615D01*
X0517437Y0013095D02*
X0520403Y0013095D01*
X0520796Y0012703D02*
X0517829Y0012703D01*
X0518221Y0012311D02*
X0521188Y0012311D01*
X0521580Y0011919D02*
X0518614Y0011919D01*
X0524236Y0013496D02*
X0519724Y0018009D01*
X0519724Y0019568D01*
X0519140Y0020152D01*
X0516681Y0020152D01*
X0514530Y0022302D01*
X0514530Y0024151D01*
X0516133Y0022549D01*
X0519747Y0022549D01*
X0521436Y0024238D01*
X0521436Y0021962D01*
X0522313Y0021086D01*
X0526672Y0016727D01*
X0525622Y0016293D01*
X0524723Y0015393D01*
X0524236Y0014218D01*
X0524236Y0013496D01*
X0524236Y0013880D02*
X0523853Y0013880D01*
X0523460Y0014272D02*
X0524259Y0014272D01*
X0524421Y0014664D02*
X0523068Y0014664D01*
X0522676Y0015057D02*
X0524584Y0015057D01*
X0524779Y0015449D02*
X0522284Y0015449D01*
X0521892Y0015841D02*
X0525171Y0015841D01*
X0525563Y0016233D02*
X0521499Y0016233D01*
X0521107Y0016625D02*
X0526426Y0016625D01*
X0526381Y0017018D02*
X0520715Y0017018D01*
X0520323Y0017410D02*
X0525989Y0017410D01*
X0525597Y0017802D02*
X0519931Y0017802D01*
X0519724Y0018194D02*
X0525205Y0018194D01*
X0524812Y0018586D02*
X0519724Y0018586D01*
X0519724Y0018979D02*
X0524420Y0018979D01*
X0524028Y0019371D02*
X0519724Y0019371D01*
X0519529Y0019763D02*
X0523636Y0019763D01*
X0523244Y0020155D02*
X0516677Y0020155D01*
X0516285Y0020547D02*
X0522851Y0020547D01*
X0522459Y0020940D02*
X0515893Y0020940D01*
X0515501Y0021332D02*
X0522067Y0021332D01*
X0521675Y0021724D02*
X0515108Y0021724D01*
X0514716Y0022116D02*
X0521436Y0022116D01*
X0521436Y0022509D02*
X0514530Y0022509D01*
X0514530Y0022901D02*
X0515780Y0022901D01*
X0515388Y0023293D02*
X0514530Y0023293D01*
X0514530Y0023685D02*
X0514996Y0023685D01*
X0514604Y0024077D02*
X0514530Y0024077D01*
X0511536Y0024077D02*
X0511433Y0024077D01*
X0511536Y0024181D02*
X0511536Y0021062D01*
X0514581Y0018018D01*
X0514581Y0015952D01*
X0507984Y0022549D01*
X0509904Y0022549D01*
X0511536Y0024181D01*
X0511536Y0023685D02*
X0511041Y0023685D01*
X0510648Y0023293D02*
X0511536Y0023293D01*
X0511536Y0022901D02*
X0510256Y0022901D01*
X0511536Y0022509D02*
X0508024Y0022509D01*
X0508416Y0022116D02*
X0511536Y0022116D01*
X0511536Y0021724D02*
X0508808Y0021724D01*
X0509201Y0021332D02*
X0511536Y0021332D01*
X0511659Y0020940D02*
X0509593Y0020940D01*
X0509985Y0020547D02*
X0512051Y0020547D01*
X0512444Y0020155D02*
X0510377Y0020155D01*
X0510769Y0019763D02*
X0512836Y0019763D01*
X0513228Y0019371D02*
X0511162Y0019371D01*
X0511554Y0018979D02*
X0513620Y0018979D01*
X0514012Y0018586D02*
X0511946Y0018586D01*
X0512338Y0018194D02*
X0514405Y0018194D01*
X0514581Y0017802D02*
X0512731Y0017802D01*
X0513123Y0017410D02*
X0514581Y0017410D01*
X0514581Y0017018D02*
X0513515Y0017018D01*
X0513907Y0016625D02*
X0514581Y0016625D01*
X0514581Y0016233D02*
X0514299Y0016233D01*
X0505219Y0013880D02*
X0498330Y0013880D01*
X0498330Y0014272D02*
X0504827Y0014272D01*
X0504435Y0014664D02*
X0498330Y0014664D01*
X0498782Y0015057D02*
X0504042Y0015057D01*
X0503650Y0015449D02*
X0499621Y0015449D01*
X0500013Y0015841D02*
X0503258Y0015841D01*
X0502866Y0016233D02*
X0500405Y0016233D01*
X0500590Y0016625D02*
X0502473Y0016625D01*
X0502081Y0017018D02*
X0500753Y0017018D01*
X0500915Y0017410D02*
X0501689Y0017410D01*
X0501297Y0017802D02*
X0500930Y0017802D01*
X0495922Y0020793D02*
X0495104Y0019975D01*
X0494809Y0020270D01*
X0492138Y0020270D01*
X0493853Y0021986D01*
X0497113Y0021986D01*
X0497820Y0021279D01*
X0497097Y0021279D01*
X0495922Y0020793D01*
X0495677Y0020547D02*
X0492415Y0020547D01*
X0492808Y0020940D02*
X0496278Y0020940D01*
X0495285Y0020155D02*
X0494924Y0020155D01*
X0493592Y0021724D02*
X0497375Y0021724D01*
X0497767Y0021332D02*
X0493200Y0021332D01*
X0490535Y0022901D02*
X0484330Y0022901D01*
X0484330Y0023293D02*
X0490927Y0023293D01*
X0490914Y0023685D02*
X0484330Y0023685D01*
X0484330Y0024077D02*
X0490521Y0024077D01*
X0490143Y0022509D02*
X0484330Y0022509D01*
X0484330Y0022116D02*
X0489750Y0022116D01*
X0489358Y0021724D02*
X0484330Y0021724D01*
X0484330Y0021332D02*
X0488966Y0021332D01*
X0488574Y0020940D02*
X0484330Y0020940D01*
X0484330Y0020547D02*
X0488182Y0020547D01*
X0488136Y0020155D02*
X0484330Y0020155D01*
X0484330Y0019763D02*
X0488136Y0019763D01*
X0488136Y0019371D02*
X0484330Y0019371D01*
X0484330Y0018979D02*
X0488136Y0018979D01*
X0488136Y0018586D02*
X0484330Y0018586D01*
X0484330Y0018194D02*
X0488136Y0018194D01*
X0488136Y0017802D02*
X0484330Y0017802D01*
X0484330Y0017410D02*
X0488136Y0017410D01*
X0488136Y0017018D02*
X0484330Y0017018D01*
X0484330Y0016625D02*
X0488136Y0016625D01*
X0488136Y0016233D02*
X0484330Y0016233D01*
X0484330Y0015841D02*
X0488136Y0015841D01*
X0488136Y0015449D02*
X0484330Y0015449D01*
X0484330Y0015057D02*
X0488136Y0015057D01*
X0488136Y0014664D02*
X0484330Y0014664D01*
X0484330Y0014272D02*
X0488136Y0014272D01*
X0488136Y0013880D02*
X0484330Y0013880D01*
X0484330Y0013488D02*
X0488136Y0013488D01*
X0488136Y0013095D02*
X0484330Y0013095D01*
X0484330Y0012703D02*
X0488136Y0012703D01*
X0488136Y0012311D02*
X0484330Y0012311D01*
X0484330Y0011919D02*
X0487010Y0011919D01*
X0486618Y0011527D02*
X0484330Y0011527D01*
X0484330Y0011134D02*
X0486510Y0011134D01*
X0486510Y0010742D02*
X0484330Y0010742D01*
X0484330Y0010350D02*
X0486510Y0010350D01*
X0486510Y0009958D02*
X0484330Y0009958D01*
X0484330Y0009566D02*
X0486510Y0009566D01*
X0486510Y0009173D02*
X0484330Y0009173D01*
X0484330Y0008781D02*
X0486510Y0008781D01*
X0486510Y0008389D02*
X0484330Y0008389D01*
X0484330Y0007997D02*
X0486510Y0007997D01*
X0486510Y0007604D02*
X0484330Y0007604D01*
X0484330Y0007212D02*
X0486510Y0007212D01*
X0486739Y0006820D02*
X0484330Y0006820D01*
X0484330Y0006428D02*
X0511343Y0006428D01*
X0510951Y0006820D02*
X0498904Y0006820D01*
X0499133Y0007212D02*
X0510840Y0007212D01*
X0510840Y0007604D02*
X0499133Y0007604D01*
X0499133Y0007997D02*
X0510840Y0007997D01*
X0510840Y0008389D02*
X0499133Y0008389D01*
X0499133Y0008781D02*
X0510318Y0008781D01*
X0509925Y0009173D02*
X0499133Y0009173D01*
X0499133Y0009566D02*
X0509533Y0009566D01*
X0509141Y0009958D02*
X0499133Y0009958D01*
X0499133Y0010350D02*
X0508749Y0010350D01*
X0508357Y0010742D02*
X0499133Y0010742D01*
X0499133Y0011134D02*
X0507964Y0011134D01*
X0507572Y0011527D02*
X0499025Y0011527D01*
X0498633Y0011919D02*
X0507180Y0011919D01*
X0506788Y0012311D02*
X0498330Y0012311D01*
X0498330Y0012703D02*
X0506396Y0012703D01*
X0506003Y0013095D02*
X0498330Y0013095D01*
X0498330Y0013488D02*
X0505611Y0013488D01*
X0495336Y0013488D02*
X0491130Y0013488D01*
X0491130Y0013880D02*
X0495336Y0013880D01*
X0495336Y0014272D02*
X0491130Y0014272D01*
X0491130Y0014664D02*
X0495336Y0014664D01*
X0495336Y0015057D02*
X0495133Y0015057D01*
X0495336Y0013095D02*
X0491130Y0013095D01*
X0491130Y0012703D02*
X0495336Y0012703D01*
X0495336Y0012311D02*
X0491130Y0012311D01*
X0491152Y0011919D02*
X0494491Y0011919D01*
X0494099Y0011527D02*
X0491545Y0011527D01*
X0491653Y0011134D02*
X0493990Y0011134D01*
X0493990Y0010742D02*
X0491653Y0010742D01*
X0491653Y0010350D02*
X0493990Y0010350D01*
X0493990Y0009958D02*
X0491653Y0009958D01*
X0491653Y0009566D02*
X0493990Y0009566D01*
X0493990Y0009173D02*
X0491653Y0009173D01*
X0491653Y0008781D02*
X0493990Y0008781D01*
X0493990Y0008389D02*
X0491653Y0008389D01*
X0491653Y0007997D02*
X0493990Y0007997D01*
X0493990Y0007604D02*
X0491653Y0007604D01*
X0491653Y0007212D02*
X0493990Y0007212D01*
X0494219Y0006820D02*
X0491424Y0006820D01*
X0484330Y0006036D02*
X0545722Y0006036D01*
X0545722Y0006428D02*
X0522961Y0006428D01*
X0523353Y0006820D02*
X0532644Y0006820D01*
X0532415Y0007212D02*
X0523464Y0007212D01*
X0523464Y0007604D02*
X0532415Y0007604D01*
X0532415Y0007997D02*
X0523464Y0007997D01*
X0523464Y0008389D02*
X0532415Y0008389D01*
X0537559Y0008389D02*
X0539896Y0008389D01*
X0539896Y0007997D02*
X0537559Y0007997D01*
X0537559Y0007604D02*
X0539896Y0007604D01*
X0539896Y0007212D02*
X0537559Y0007212D01*
X0537330Y0006820D02*
X0540124Y0006820D01*
X0544810Y0006820D02*
X0545722Y0006820D01*
X0545722Y0007212D02*
X0545039Y0007212D01*
X0545039Y0007604D02*
X0545722Y0007604D01*
X0545722Y0007997D02*
X0545039Y0007997D01*
X0545039Y0008389D02*
X0545722Y0008389D01*
X0545722Y0008781D02*
X0545039Y0008781D01*
X0545039Y0009173D02*
X0545722Y0009173D01*
X0545722Y0009566D02*
X0545039Y0009566D01*
X0545039Y0009958D02*
X0545722Y0009958D01*
X0545722Y0010350D02*
X0545039Y0010350D01*
X0545039Y0010742D02*
X0545722Y0010742D01*
X0545722Y0011134D02*
X0545039Y0011134D01*
X0544930Y0011527D02*
X0545722Y0011527D01*
X0545722Y0011919D02*
X0544538Y0011919D01*
X0545722Y0012311D02*
X0539822Y0012311D01*
X0540214Y0011919D02*
X0540396Y0011919D01*
X0539429Y0012703D02*
X0545722Y0012703D01*
X0545722Y0013095D02*
X0539037Y0013095D01*
X0538645Y0013488D02*
X0545722Y0013488D01*
X0545722Y0013880D02*
X0538253Y0013880D01*
X0537860Y0014272D02*
X0545722Y0014272D01*
X0545722Y0014664D02*
X0537468Y0014664D01*
X0536393Y0015079D02*
X0530274Y0015079D01*
X0530143Y0015393D01*
X0529244Y0016293D01*
X0528537Y0016586D01*
X0536155Y0016586D01*
X0536155Y0015317D01*
X0536393Y0015079D01*
X0536155Y0015449D02*
X0530088Y0015449D01*
X0529696Y0015841D02*
X0536155Y0015841D01*
X0536155Y0016233D02*
X0529304Y0016233D01*
X0541038Y0015057D02*
X0545722Y0015057D01*
X0545722Y0015449D02*
X0541299Y0015449D01*
X0541299Y0015841D02*
X0545722Y0015841D01*
X0545722Y0016233D02*
X0541299Y0016233D01*
X0541299Y0016625D02*
X0545722Y0016625D01*
X0545722Y0017018D02*
X0541299Y0017018D01*
X0541299Y0017410D02*
X0545722Y0017410D01*
X0545722Y0017802D02*
X0541299Y0017802D01*
X0541299Y0018194D02*
X0545722Y0018194D01*
X0545722Y0018586D02*
X0541299Y0018586D01*
X0541299Y0018979D02*
X0545722Y0018979D01*
X0545722Y0019371D02*
X0541299Y0019371D01*
X0541221Y0019763D02*
X0545722Y0019763D01*
X0545722Y0020155D02*
X0540829Y0020155D01*
X0540719Y0020547D02*
X0545722Y0020547D01*
X0545722Y0020940D02*
X0541013Y0020940D01*
X0541176Y0021332D02*
X0545722Y0021332D01*
X0545722Y0021724D02*
X0541338Y0021724D01*
X0541430Y0022116D02*
X0545722Y0022116D01*
X0545722Y0022509D02*
X0541430Y0022509D01*
X0541430Y0022901D02*
X0545722Y0022901D01*
X0545722Y0023293D02*
X0541399Y0023293D01*
X0541237Y0023685D02*
X0545722Y0023685D01*
X0545722Y0024077D02*
X0541074Y0024077D01*
X0540867Y0024470D02*
X0545722Y0024470D01*
X0545722Y0024862D02*
X0540475Y0024862D01*
X0540083Y0025254D02*
X0545722Y0025254D01*
X0545722Y0025646D02*
X0539190Y0025646D01*
X0537276Y0025646D02*
X0532144Y0025646D01*
X0532144Y0025254D02*
X0536384Y0025254D01*
X0535992Y0024862D02*
X0532144Y0024862D01*
X0532144Y0024470D02*
X0535600Y0024470D01*
X0535392Y0024077D02*
X0532144Y0024077D01*
X0532144Y0023685D02*
X0535230Y0023685D01*
X0535067Y0023293D02*
X0532144Y0023293D01*
X0531913Y0022901D02*
X0535036Y0022901D01*
X0535036Y0022509D02*
X0525124Y0022509D01*
X0525516Y0022116D02*
X0535036Y0022116D01*
X0535129Y0021724D02*
X0525908Y0021724D01*
X0526301Y0021332D02*
X0535291Y0021332D01*
X0535453Y0020940D02*
X0526693Y0020940D01*
X0527085Y0020547D02*
X0535747Y0020547D01*
X0536139Y0020155D02*
X0527477Y0020155D01*
X0527869Y0019763D02*
X0536233Y0019763D01*
X0521436Y0022901D02*
X0520099Y0022901D01*
X0520491Y0023293D02*
X0521436Y0023293D01*
X0521436Y0023685D02*
X0520883Y0023685D01*
X0521275Y0024077D02*
X0521436Y0024077D01*
X0532144Y0026038D02*
X0545722Y0026038D01*
X0545722Y0026431D02*
X0532144Y0026431D01*
X0532144Y0026823D02*
X0545722Y0026823D01*
X0545722Y0027215D02*
X0532144Y0027215D01*
X0532144Y0027607D02*
X0545722Y0027607D01*
X0545722Y0028000D02*
X0532144Y0028000D01*
X0505625Y0033490D02*
X0495466Y0033490D01*
X0495530Y0033883D02*
X0506017Y0033883D01*
X0506409Y0034275D02*
X0495530Y0034275D01*
X0495530Y0034667D02*
X0506801Y0034667D01*
X0507036Y0035059D02*
X0495472Y0035059D01*
X0495309Y0035452D02*
X0507036Y0035452D01*
X0507036Y0035844D02*
X0506193Y0035844D01*
X0506908Y0036236D02*
X0507036Y0036236D01*
X0503674Y0035844D02*
X0495147Y0035844D01*
X0498596Y0036236D02*
X0502959Y0036236D01*
X0502566Y0036628D02*
X0498988Y0036628D01*
X0499173Y0037020D02*
X0502203Y0037020D01*
X0492848Y0037805D02*
X0492728Y0037805D01*
X0492848Y0038197D02*
X0492480Y0038197D01*
X0492480Y0038589D02*
X0492848Y0038589D01*
X0492848Y0038981D02*
X0492480Y0038981D01*
X0492480Y0039374D02*
X0492848Y0039374D01*
X0492848Y0039766D02*
X0492480Y0039766D01*
X0492480Y0040158D02*
X0492848Y0040158D01*
X0492848Y0040550D02*
X0492480Y0040550D01*
X0492480Y0040943D02*
X0492848Y0040943D01*
X0492848Y0041335D02*
X0492480Y0041335D01*
X0492328Y0041727D02*
X0493000Y0041727D01*
X0493392Y0042119D02*
X0491936Y0042119D01*
X0491130Y0042511D02*
X0507036Y0042511D01*
X0507036Y0042119D02*
X0498629Y0042119D01*
X0499021Y0041727D02*
X0503688Y0041727D01*
X0502965Y0041335D02*
X0499173Y0041335D01*
X0499173Y0040943D02*
X0502572Y0040943D01*
X0502205Y0040550D02*
X0499173Y0040550D01*
X0506178Y0041727D02*
X0507036Y0041727D01*
X0507036Y0041335D02*
X0506902Y0041335D01*
X0507036Y0042904D02*
X0491130Y0042904D01*
X0491130Y0043296D02*
X0507036Y0043296D01*
X0507036Y0043688D02*
X0491130Y0043688D01*
X0491130Y0044080D02*
X0507036Y0044080D01*
X0507036Y0044472D02*
X0491130Y0044472D01*
X0491130Y0044865D02*
X0507036Y0044865D01*
X0507036Y0045257D02*
X0491130Y0045257D01*
X0491130Y0045649D02*
X0507036Y0045649D01*
X0507036Y0046041D02*
X0491130Y0046041D01*
X0491130Y0046433D02*
X0507036Y0046433D01*
X0507036Y0046826D02*
X0491130Y0046826D01*
X0491130Y0047218D02*
X0507036Y0047218D01*
X0514530Y0047588D02*
X0514530Y0048065D01*
X0514805Y0047789D01*
X0514731Y0047789D01*
X0514530Y0047588D01*
X0514530Y0047610D02*
X0514552Y0047610D01*
X0514530Y0048002D02*
X0514592Y0048002D01*
X0518461Y0047789D02*
X0519343Y0048671D01*
X0519636Y0049379D01*
X0519636Y0047647D01*
X0519494Y0047789D01*
X0518461Y0047789D01*
X0518674Y0048002D02*
X0519636Y0048002D01*
X0519636Y0048395D02*
X0519067Y0048395D01*
X0519391Y0048787D02*
X0519636Y0048787D01*
X0519636Y0049179D02*
X0519554Y0049179D01*
X0519636Y0051586D02*
X0519343Y0052293D01*
X0518444Y0053193D01*
X0518366Y0053225D01*
X0519510Y0053225D01*
X0519636Y0053351D01*
X0519636Y0051586D01*
X0519636Y0051924D02*
X0519496Y0051924D01*
X0519636Y0052317D02*
X0519320Y0052317D01*
X0519636Y0052709D02*
X0518928Y0052709D01*
X0518536Y0053101D02*
X0519636Y0053101D01*
X0493092Y0053101D02*
X0491130Y0053101D01*
X0491130Y0052709D02*
X0493092Y0052709D01*
X0493092Y0052317D02*
X0491130Y0052317D01*
X0491130Y0051924D02*
X0493092Y0051924D01*
X0493092Y0051532D02*
X0491130Y0051532D01*
X0491130Y0051140D02*
X0493092Y0051140D01*
X0493092Y0050748D02*
X0491130Y0050748D01*
X0491130Y0050356D02*
X0493092Y0050356D01*
X0493092Y0049963D02*
X0491130Y0049963D01*
X0491130Y0049571D02*
X0493092Y0049571D01*
X0493092Y0049179D02*
X0491130Y0049179D01*
X0491130Y0048787D02*
X0493092Y0048787D01*
X0493092Y0048395D02*
X0491130Y0048395D01*
X0491130Y0048002D02*
X0493092Y0048002D01*
X0493405Y0047610D02*
X0491130Y0047610D01*
X0491130Y0053493D02*
X0493092Y0053493D01*
X0493092Y0053886D02*
X0491130Y0053886D01*
X0491130Y0054278D02*
X0493092Y0054278D01*
X0493092Y0054670D02*
X0491130Y0054670D01*
X0491130Y0055062D02*
X0493092Y0055062D01*
X0493092Y0055454D02*
X0491130Y0055454D01*
X0491130Y0055847D02*
X0493092Y0055847D01*
X0493092Y0056239D02*
X0491130Y0056239D01*
X0491130Y0056631D02*
X0493092Y0056631D01*
X0493092Y0057023D02*
X0491130Y0057023D01*
X0491130Y0057415D02*
X0493092Y0057415D01*
X0493092Y0057808D02*
X0491130Y0057808D01*
X0491130Y0058200D02*
X0493092Y0058200D01*
X0493092Y0058592D02*
X0491130Y0058592D01*
X0491130Y0058984D02*
X0493092Y0058984D01*
X0493092Y0059376D02*
X0491130Y0059376D01*
X0491130Y0059769D02*
X0493092Y0059769D01*
X0493092Y0060161D02*
X0491130Y0060161D01*
X0491130Y0060553D02*
X0493092Y0060553D01*
X0493092Y0060945D02*
X0491130Y0060945D01*
X0491130Y0061338D02*
X0493413Y0061338D01*
X0493347Y0070751D02*
X0504336Y0070751D01*
X0500428Y0071143D02*
X0493425Y0071143D01*
X0487964Y0070358D02*
X0484330Y0070358D01*
X0484330Y0070751D02*
X0487572Y0070751D01*
X0487494Y0071143D02*
X0484330Y0071143D01*
X0484330Y0071535D02*
X0487494Y0071535D01*
X0487494Y0071927D02*
X0484330Y0071927D01*
X0484330Y0072319D02*
X0487494Y0072319D01*
X0487494Y0072712D02*
X0484330Y0072712D01*
X0484330Y0073104D02*
X0487494Y0073104D01*
X0487494Y0073496D02*
X0484330Y0073496D01*
X0484330Y0073888D02*
X0487494Y0073888D01*
X0487494Y0074281D02*
X0484330Y0074281D01*
X0484330Y0074673D02*
X0487494Y0074673D01*
X0487494Y0075065D02*
X0484330Y0075065D01*
X0484330Y0075457D02*
X0487494Y0075457D01*
X0487494Y0075849D02*
X0484330Y0075849D01*
X0484330Y0076242D02*
X0487751Y0076242D01*
X0489036Y0076634D02*
X0484330Y0076634D01*
X0484330Y0077026D02*
X0489036Y0077026D01*
X0489036Y0077418D02*
X0484330Y0077418D01*
X0484330Y0077810D02*
X0489036Y0077810D01*
X0489036Y0078203D02*
X0484330Y0078203D01*
X0484330Y0078595D02*
X0489036Y0078595D01*
X0489036Y0078987D02*
X0484330Y0078987D01*
X0484330Y0079379D02*
X0489036Y0079379D01*
X0487724Y0079772D02*
X0484330Y0079772D01*
X0484330Y0080164D02*
X0487494Y0080164D01*
X0487494Y0080556D02*
X0484330Y0080556D01*
X0484330Y0080948D02*
X0487494Y0080948D01*
X0487494Y0081340D02*
X0484330Y0081340D01*
X0484330Y0081733D02*
X0487494Y0081733D01*
X0487494Y0082125D02*
X0484330Y0082125D01*
X0484330Y0082517D02*
X0487494Y0082517D01*
X0487494Y0082909D02*
X0484330Y0082909D01*
X0484330Y0083301D02*
X0487494Y0083301D01*
X0487494Y0083694D02*
X0484330Y0083694D01*
X0484330Y0084086D02*
X0487494Y0084086D01*
X0487494Y0084478D02*
X0484330Y0084478D01*
X0484330Y0084870D02*
X0487494Y0084870D01*
X0487598Y0085262D02*
X0484330Y0085262D01*
X0502177Y0080556D02*
X0526743Y0080556D01*
X0530722Y0080164D02*
X0531011Y0080164D01*
X0530917Y0089969D02*
X0535525Y0089969D01*
X0535525Y0090361D02*
X0525671Y0090361D01*
X0525279Y0090753D02*
X0535525Y0090753D01*
X0535529Y0091146D02*
X0524887Y0091146D01*
X0524495Y0091538D02*
X0535921Y0091538D01*
X0520653Y0091146D02*
X0509913Y0091146D01*
X0510306Y0091538D02*
X0520261Y0091538D01*
X0519869Y0091930D02*
X0510698Y0091930D01*
X0511090Y0092322D02*
X0519477Y0092322D01*
X0519084Y0092715D02*
X0511482Y0092715D01*
X0511875Y0093107D02*
X0518692Y0093107D01*
X0518300Y0093499D02*
X0512267Y0093499D01*
X0512659Y0093891D02*
X0517908Y0093891D01*
X0517515Y0094283D02*
X0513051Y0094283D01*
X0513443Y0094676D02*
X0517123Y0094676D01*
X0516731Y0095068D02*
X0516362Y0095068D01*
X0514399Y0095068D02*
X0513836Y0095068D01*
X0510779Y0096244D02*
X0502688Y0096244D01*
X0503080Y0095852D02*
X0503091Y0095852D01*
X0502296Y0096637D02*
X0511171Y0096637D01*
X0511563Y0097029D02*
X0501904Y0097029D01*
X0501511Y0097421D02*
X0511955Y0097421D01*
X0511884Y0097813D02*
X0501119Y0097813D01*
X0500727Y0098205D02*
X0511884Y0098205D01*
X0511884Y0098598D02*
X0500335Y0098598D01*
X0499943Y0098990D02*
X0511884Y0098990D01*
X0511983Y0099382D02*
X0499550Y0099382D01*
X0493586Y0099774D02*
X0512146Y0099774D01*
X0512308Y0100167D02*
X0493423Y0100167D01*
X0493253Y0100559D02*
X0512548Y0100559D01*
X0512940Y0100951D02*
X0492860Y0100951D01*
X0492468Y0101343D02*
X0513332Y0101343D01*
X0514184Y0101735D02*
X0491784Y0101735D01*
X0488820Y0101735D02*
X0484330Y0101735D01*
X0484330Y0101343D02*
X0488135Y0101343D01*
X0487743Y0100951D02*
X0484330Y0100951D01*
X0484330Y0100559D02*
X0487351Y0100559D01*
X0487181Y0100167D02*
X0484330Y0100167D01*
X0484330Y0099774D02*
X0487018Y0099774D01*
X0486856Y0099382D02*
X0484330Y0099382D01*
X0484330Y0098990D02*
X0486805Y0098990D01*
X0486805Y0098598D02*
X0484330Y0098598D01*
X0484330Y0098205D02*
X0486805Y0098205D01*
X0486828Y0097813D02*
X0484330Y0097813D01*
X0484330Y0097421D02*
X0486990Y0097421D01*
X0487153Y0097029D02*
X0484330Y0097029D01*
X0484330Y0096637D02*
X0487315Y0096637D01*
X0487676Y0096244D02*
X0484330Y0096244D01*
X0484330Y0095852D02*
X0488069Y0095852D01*
X0488658Y0095460D02*
X0484330Y0095460D01*
X0484330Y0095068D02*
X0489605Y0095068D01*
X0490998Y0095068D02*
X0499631Y0095068D01*
X0499239Y0095460D02*
X0491945Y0095460D01*
X0492535Y0095852D02*
X0498847Y0095852D01*
X0498454Y0096244D02*
X0492927Y0096244D01*
X0493288Y0096637D02*
X0498062Y0096637D01*
X0504976Y0095852D02*
X0510386Y0095852D01*
X0509994Y0095460D02*
X0505877Y0095460D01*
X0506269Y0095068D02*
X0509602Y0095068D01*
X0509210Y0094676D02*
X0506661Y0094676D01*
X0506872Y0094283D02*
X0508817Y0094283D01*
X0508425Y0093891D02*
X0507034Y0093891D01*
X0507197Y0093499D02*
X0508033Y0093499D01*
X0507641Y0093107D02*
X0507230Y0093107D01*
X0507230Y0092715D02*
X0507249Y0092715D01*
X0500836Y0092715D02*
X0484330Y0092715D01*
X0484330Y0093107D02*
X0500836Y0093107D01*
X0500870Y0093499D02*
X0484330Y0093499D01*
X0484330Y0093891D02*
X0500808Y0093891D01*
X0500415Y0094283D02*
X0484330Y0094283D01*
X0484330Y0094676D02*
X0500023Y0094676D01*
X0484330Y0102128D02*
X0545722Y0102128D01*
X0545722Y0102520D02*
X0484330Y0102520D01*
X0484330Y0102912D02*
X0545722Y0102912D01*
X0545722Y0103079D02*
X0545722Y0004679D01*
X0484330Y0004679D01*
X0484330Y0103079D01*
X0545722Y0103079D01*
X0545722Y0101735D02*
X0516577Y0101735D01*
X0512356Y0040943D02*
X0510030Y0040943D01*
X0510030Y0040550D02*
X0512749Y0040550D01*
X0513141Y0040158D02*
X0510030Y0040158D01*
X0510030Y0039766D02*
X0513533Y0039766D01*
X0513925Y0039374D02*
X0510030Y0039374D01*
X0520078Y0039374D02*
X0521436Y0039374D01*
X0521436Y0039766D02*
X0520078Y0039766D01*
X0520078Y0040158D02*
X0521436Y0040158D01*
X0521436Y0040550D02*
X0520040Y0040550D01*
X0520078Y0038981D02*
X0521436Y0038981D01*
X0521436Y0038589D02*
X0520078Y0038589D01*
X0520078Y0038197D02*
X0521436Y0038197D01*
X0521436Y0037805D02*
X0520078Y0037805D01*
X0520078Y0037413D02*
X0521436Y0037413D01*
X0505232Y0033098D02*
X0495303Y0033098D01*
X0495141Y0032706D02*
X0504840Y0032706D01*
X0504448Y0032314D02*
X0494886Y0032314D01*
X0494494Y0031922D02*
X0504056Y0031922D01*
X0503664Y0031529D02*
X0494041Y0031529D01*
X0493094Y0031137D02*
X0503271Y0031137D01*
X0502879Y0030745D02*
X0484330Y0030745D01*
X0484330Y0030353D02*
X0502487Y0030353D01*
X0502095Y0029961D02*
X0498937Y0029961D01*
X0499173Y0029568D02*
X0501702Y0029568D01*
X0501310Y0029176D02*
X0499173Y0029176D01*
X0499173Y0028784D02*
X0500918Y0028784D01*
X0503450Y0027082D02*
X0503735Y0027367D01*
X0503735Y0026798D01*
X0503450Y0027082D01*
X0503583Y0027215D02*
X0503735Y0027215D01*
X0503710Y0026823D02*
X0503735Y0026823D01*
X0486648Y0024470D02*
X0484330Y0024470D01*
X0484330Y0024862D02*
X0486256Y0024862D01*
X0486155Y0025254D02*
X0484330Y0025254D01*
X0484330Y0025646D02*
X0486155Y0025646D01*
X0486155Y0026038D02*
X0484330Y0026038D01*
X0484330Y0026431D02*
X0486155Y0026431D01*
X0486155Y0026823D02*
X0484330Y0026823D01*
X0484330Y0027215D02*
X0486155Y0027215D01*
X0486155Y0027607D02*
X0484330Y0027607D01*
X0484330Y0028000D02*
X0486155Y0028000D01*
X0486155Y0028392D02*
X0484330Y0028392D01*
X0484330Y0028784D02*
X0486155Y0028784D01*
X0486155Y0029176D02*
X0484330Y0029176D01*
X0484330Y0029568D02*
X0486155Y0029568D01*
X0486391Y0029961D02*
X0484330Y0029961D01*
X0529851Y0011479D02*
X0530143Y0011771D01*
X0530274Y0012086D01*
X0535813Y0012086D01*
X0535897Y0012002D01*
X0532999Y0012002D01*
X0532476Y0011479D01*
X0529851Y0011479D01*
X0529899Y0011527D02*
X0532524Y0011527D01*
X0532916Y0011919D02*
X0530205Y0011919D01*
X0523933Y0009566D02*
X0523464Y0009566D01*
X0523464Y0009958D02*
X0523541Y0009958D01*
X0523464Y0009173D02*
X0524325Y0009173D01*
X0524718Y0008781D02*
X0523464Y0008781D01*
X0518321Y0008389D02*
X0515984Y0008389D01*
X0515984Y0008781D02*
X0517518Y0008781D01*
X0517125Y0009173D02*
X0515984Y0009173D01*
X0515984Y0009566D02*
X0516733Y0009566D01*
X0516341Y0009958D02*
X0515984Y0009958D01*
X0515984Y0007997D02*
X0518321Y0007997D01*
X0518321Y0007604D02*
X0515984Y0007604D01*
X0515984Y0007212D02*
X0518321Y0007212D01*
X0518432Y0006820D02*
X0515873Y0006820D01*
X0515481Y0006428D02*
X0518824Y0006428D01*
X0537559Y0008781D02*
X0539118Y0008781D01*
X0538725Y0009173D02*
X0537559Y0009173D01*
X0537559Y0009566D02*
X0538333Y0009566D01*
X0537941Y0009958D02*
X0537559Y0009958D01*
X0545722Y0005643D02*
X0484330Y0005643D01*
X0484330Y0005251D02*
X0545722Y0005251D01*
X0545722Y0004859D02*
X0484330Y0004859D01*
M02*
