G75*
%MOIN*%
%OFA0B0*%
%FSLAX25Y25*%
%IPPOS*%
%LPD*%
%AMOC8*
5,1,8,0,0,1.08239X$1,22.5*
%
%ADD10C,0.00394*%
%ADD11C,0.00800*%
%ADD12C,0.00200*%
D10*
X0509318Y0013131D02*
X0509321Y0013353D01*
X0509329Y0013575D01*
X0509343Y0013797D01*
X0509362Y0014019D01*
X0509386Y0014239D01*
X0509416Y0014460D01*
X0509451Y0014679D01*
X0509492Y0014898D01*
X0509538Y0015115D01*
X0509589Y0015331D01*
X0509646Y0015546D01*
X0509708Y0015760D01*
X0509775Y0015971D01*
X0509847Y0016182D01*
X0509925Y0016390D01*
X0510007Y0016596D01*
X0510095Y0016800D01*
X0510187Y0017003D01*
X0510285Y0017202D01*
X0510387Y0017399D01*
X0510494Y0017594D01*
X0510606Y0017786D01*
X0510723Y0017975D01*
X0510844Y0018162D01*
X0510970Y0018345D01*
X0511100Y0018525D01*
X0511235Y0018702D01*
X0511373Y0018875D01*
X0511516Y0019045D01*
X0511664Y0019212D01*
X0511815Y0019375D01*
X0511970Y0019534D01*
X0512129Y0019689D01*
X0512292Y0019840D01*
X0512459Y0019988D01*
X0512629Y0020131D01*
X0512802Y0020269D01*
X0512979Y0020404D01*
X0513159Y0020534D01*
X0513342Y0020660D01*
X0513529Y0020781D01*
X0513718Y0020898D01*
X0513910Y0021010D01*
X0514105Y0021117D01*
X0514302Y0021219D01*
X0514501Y0021317D01*
X0514704Y0021409D01*
X0514908Y0021497D01*
X0515114Y0021579D01*
X0515322Y0021657D01*
X0515533Y0021729D01*
X0515744Y0021796D01*
X0515958Y0021858D01*
X0516173Y0021915D01*
X0516389Y0021966D01*
X0516606Y0022012D01*
X0516825Y0022053D01*
X0517044Y0022088D01*
X0517265Y0022118D01*
X0517485Y0022142D01*
X0517707Y0022161D01*
X0517929Y0022175D01*
X0518151Y0022183D01*
X0518373Y0022186D01*
X0518595Y0022183D01*
X0518817Y0022175D01*
X0519039Y0022161D01*
X0519261Y0022142D01*
X0519481Y0022118D01*
X0519702Y0022088D01*
X0519921Y0022053D01*
X0520140Y0022012D01*
X0520357Y0021966D01*
X0520573Y0021915D01*
X0520788Y0021858D01*
X0521002Y0021796D01*
X0521213Y0021729D01*
X0521424Y0021657D01*
X0521632Y0021579D01*
X0521838Y0021497D01*
X0522042Y0021409D01*
X0522245Y0021317D01*
X0522444Y0021219D01*
X0522641Y0021117D01*
X0522836Y0021010D01*
X0523028Y0020898D01*
X0523217Y0020781D01*
X0523404Y0020660D01*
X0523587Y0020534D01*
X0523767Y0020404D01*
X0523944Y0020269D01*
X0524117Y0020131D01*
X0524287Y0019988D01*
X0524454Y0019840D01*
X0524617Y0019689D01*
X0524776Y0019534D01*
X0524931Y0019375D01*
X0525082Y0019212D01*
X0525230Y0019045D01*
X0525373Y0018875D01*
X0525511Y0018702D01*
X0525646Y0018525D01*
X0525776Y0018345D01*
X0525902Y0018162D01*
X0526023Y0017975D01*
X0526140Y0017786D01*
X0526252Y0017594D01*
X0526359Y0017399D01*
X0526461Y0017202D01*
X0526559Y0017003D01*
X0526651Y0016800D01*
X0526739Y0016596D01*
X0526821Y0016390D01*
X0526899Y0016182D01*
X0526971Y0015971D01*
X0527038Y0015760D01*
X0527100Y0015546D01*
X0527157Y0015331D01*
X0527208Y0015115D01*
X0527254Y0014898D01*
X0527295Y0014679D01*
X0527330Y0014460D01*
X0527360Y0014239D01*
X0527384Y0014019D01*
X0527403Y0013797D01*
X0527417Y0013575D01*
X0527425Y0013353D01*
X0527428Y0013131D01*
X0527425Y0012909D01*
X0527417Y0012687D01*
X0527403Y0012465D01*
X0527384Y0012243D01*
X0527360Y0012023D01*
X0527330Y0011802D01*
X0527295Y0011583D01*
X0527254Y0011364D01*
X0527208Y0011147D01*
X0527157Y0010931D01*
X0527100Y0010716D01*
X0527038Y0010502D01*
X0526971Y0010291D01*
X0526899Y0010080D01*
X0526821Y0009872D01*
X0526739Y0009666D01*
X0526651Y0009462D01*
X0526559Y0009259D01*
X0526461Y0009060D01*
X0526359Y0008863D01*
X0526252Y0008668D01*
X0526140Y0008476D01*
X0526023Y0008287D01*
X0525902Y0008100D01*
X0525776Y0007917D01*
X0525646Y0007737D01*
X0525511Y0007560D01*
X0525373Y0007387D01*
X0525230Y0007217D01*
X0525082Y0007050D01*
X0524931Y0006887D01*
X0524776Y0006728D01*
X0524617Y0006573D01*
X0524454Y0006422D01*
X0524287Y0006274D01*
X0524117Y0006131D01*
X0523944Y0005993D01*
X0523767Y0005858D01*
X0523587Y0005728D01*
X0523404Y0005602D01*
X0523217Y0005481D01*
X0523028Y0005364D01*
X0522836Y0005252D01*
X0522641Y0005145D01*
X0522444Y0005043D01*
X0522245Y0004945D01*
X0522042Y0004853D01*
X0521838Y0004765D01*
X0521632Y0004683D01*
X0521424Y0004605D01*
X0521213Y0004533D01*
X0521002Y0004466D01*
X0520788Y0004404D01*
X0520573Y0004347D01*
X0520357Y0004296D01*
X0520140Y0004250D01*
X0519921Y0004209D01*
X0519702Y0004174D01*
X0519481Y0004144D01*
X0519261Y0004120D01*
X0519039Y0004101D01*
X0518817Y0004087D01*
X0518595Y0004079D01*
X0518373Y0004076D01*
X0518151Y0004079D01*
X0517929Y0004087D01*
X0517707Y0004101D01*
X0517485Y0004120D01*
X0517265Y0004144D01*
X0517044Y0004174D01*
X0516825Y0004209D01*
X0516606Y0004250D01*
X0516389Y0004296D01*
X0516173Y0004347D01*
X0515958Y0004404D01*
X0515744Y0004466D01*
X0515533Y0004533D01*
X0515322Y0004605D01*
X0515114Y0004683D01*
X0514908Y0004765D01*
X0514704Y0004853D01*
X0514501Y0004945D01*
X0514302Y0005043D01*
X0514105Y0005145D01*
X0513910Y0005252D01*
X0513718Y0005364D01*
X0513529Y0005481D01*
X0513342Y0005602D01*
X0513159Y0005728D01*
X0512979Y0005858D01*
X0512802Y0005993D01*
X0512629Y0006131D01*
X0512459Y0006274D01*
X0512292Y0006422D01*
X0512129Y0006573D01*
X0511970Y0006728D01*
X0511815Y0006887D01*
X0511664Y0007050D01*
X0511516Y0007217D01*
X0511373Y0007387D01*
X0511235Y0007560D01*
X0511100Y0007737D01*
X0510970Y0007917D01*
X0510844Y0008100D01*
X0510723Y0008287D01*
X0510606Y0008476D01*
X0510494Y0008668D01*
X0510387Y0008863D01*
X0510285Y0009060D01*
X0510187Y0009259D01*
X0510095Y0009462D01*
X0510007Y0009666D01*
X0509925Y0009872D01*
X0509847Y0010080D01*
X0509775Y0010291D01*
X0509708Y0010502D01*
X0509646Y0010716D01*
X0509589Y0010931D01*
X0509538Y0011147D01*
X0509492Y0011364D01*
X0509451Y0011583D01*
X0509416Y0011802D01*
X0509386Y0012023D01*
X0509362Y0012243D01*
X0509343Y0012465D01*
X0509329Y0012687D01*
X0509321Y0012909D01*
X0509318Y0013131D01*
X0510851Y0013131D02*
X0510853Y0013316D01*
X0510860Y0013500D01*
X0510871Y0013684D01*
X0510887Y0013868D01*
X0510908Y0014052D01*
X0510932Y0014235D01*
X0510962Y0014417D01*
X0510996Y0014598D01*
X0511034Y0014779D01*
X0511076Y0014959D01*
X0511123Y0015137D01*
X0511175Y0015315D01*
X0511231Y0015491D01*
X0511291Y0015665D01*
X0511355Y0015838D01*
X0511424Y0016010D01*
X0511496Y0016179D01*
X0511573Y0016347D01*
X0511654Y0016513D01*
X0511739Y0016677D01*
X0511828Y0016839D01*
X0511921Y0016998D01*
X0512018Y0017155D01*
X0512119Y0017310D01*
X0512223Y0017462D01*
X0512331Y0017612D01*
X0512443Y0017759D01*
X0512558Y0017903D01*
X0512677Y0018044D01*
X0512800Y0018182D01*
X0512925Y0018318D01*
X0513054Y0018450D01*
X0513186Y0018579D01*
X0513322Y0018704D01*
X0513460Y0018827D01*
X0513601Y0018946D01*
X0513745Y0019061D01*
X0513892Y0019173D01*
X0514042Y0019281D01*
X0514194Y0019385D01*
X0514349Y0019486D01*
X0514506Y0019583D01*
X0514665Y0019676D01*
X0514827Y0019765D01*
X0514991Y0019850D01*
X0515157Y0019931D01*
X0515325Y0020008D01*
X0515494Y0020080D01*
X0515666Y0020149D01*
X0515839Y0020213D01*
X0516013Y0020273D01*
X0516189Y0020329D01*
X0516367Y0020381D01*
X0516545Y0020428D01*
X0516725Y0020470D01*
X0516906Y0020508D01*
X0517087Y0020542D01*
X0517269Y0020572D01*
X0517452Y0020596D01*
X0517636Y0020617D01*
X0517820Y0020633D01*
X0518004Y0020644D01*
X0518188Y0020651D01*
X0518373Y0020653D01*
X0518558Y0020651D01*
X0518742Y0020644D01*
X0518926Y0020633D01*
X0519110Y0020617D01*
X0519294Y0020596D01*
X0519477Y0020572D01*
X0519659Y0020542D01*
X0519840Y0020508D01*
X0520021Y0020470D01*
X0520201Y0020428D01*
X0520379Y0020381D01*
X0520557Y0020329D01*
X0520733Y0020273D01*
X0520907Y0020213D01*
X0521080Y0020149D01*
X0521252Y0020080D01*
X0521421Y0020008D01*
X0521589Y0019931D01*
X0521755Y0019850D01*
X0521919Y0019765D01*
X0522081Y0019676D01*
X0522240Y0019583D01*
X0522397Y0019486D01*
X0522552Y0019385D01*
X0522704Y0019281D01*
X0522854Y0019173D01*
X0523001Y0019061D01*
X0523145Y0018946D01*
X0523286Y0018827D01*
X0523424Y0018704D01*
X0523560Y0018579D01*
X0523692Y0018450D01*
X0523821Y0018318D01*
X0523946Y0018182D01*
X0524069Y0018044D01*
X0524188Y0017903D01*
X0524303Y0017759D01*
X0524415Y0017612D01*
X0524523Y0017462D01*
X0524627Y0017310D01*
X0524728Y0017155D01*
X0524825Y0016998D01*
X0524918Y0016839D01*
X0525007Y0016677D01*
X0525092Y0016513D01*
X0525173Y0016347D01*
X0525250Y0016179D01*
X0525322Y0016010D01*
X0525391Y0015838D01*
X0525455Y0015665D01*
X0525515Y0015491D01*
X0525571Y0015315D01*
X0525623Y0015137D01*
X0525670Y0014959D01*
X0525712Y0014779D01*
X0525750Y0014598D01*
X0525784Y0014417D01*
X0525814Y0014235D01*
X0525838Y0014052D01*
X0525859Y0013868D01*
X0525875Y0013684D01*
X0525886Y0013500D01*
X0525893Y0013316D01*
X0525895Y0013131D01*
X0525893Y0012946D01*
X0525886Y0012762D01*
X0525875Y0012578D01*
X0525859Y0012394D01*
X0525838Y0012210D01*
X0525814Y0012027D01*
X0525784Y0011845D01*
X0525750Y0011664D01*
X0525712Y0011483D01*
X0525670Y0011303D01*
X0525623Y0011125D01*
X0525571Y0010947D01*
X0525515Y0010771D01*
X0525455Y0010597D01*
X0525391Y0010424D01*
X0525322Y0010252D01*
X0525250Y0010083D01*
X0525173Y0009915D01*
X0525092Y0009749D01*
X0525007Y0009585D01*
X0524918Y0009423D01*
X0524825Y0009264D01*
X0524728Y0009107D01*
X0524627Y0008952D01*
X0524523Y0008800D01*
X0524415Y0008650D01*
X0524303Y0008503D01*
X0524188Y0008359D01*
X0524069Y0008218D01*
X0523946Y0008080D01*
X0523821Y0007944D01*
X0523692Y0007812D01*
X0523560Y0007683D01*
X0523424Y0007558D01*
X0523286Y0007435D01*
X0523145Y0007316D01*
X0523001Y0007201D01*
X0522854Y0007089D01*
X0522704Y0006981D01*
X0522552Y0006877D01*
X0522397Y0006776D01*
X0522240Y0006679D01*
X0522081Y0006586D01*
X0521919Y0006497D01*
X0521755Y0006412D01*
X0521589Y0006331D01*
X0521421Y0006254D01*
X0521252Y0006182D01*
X0521080Y0006113D01*
X0520907Y0006049D01*
X0520733Y0005989D01*
X0520557Y0005933D01*
X0520379Y0005881D01*
X0520201Y0005834D01*
X0520021Y0005792D01*
X0519840Y0005754D01*
X0519659Y0005720D01*
X0519477Y0005690D01*
X0519294Y0005666D01*
X0519110Y0005645D01*
X0518926Y0005629D01*
X0518742Y0005618D01*
X0518558Y0005611D01*
X0518373Y0005609D01*
X0518188Y0005611D01*
X0518004Y0005618D01*
X0517820Y0005629D01*
X0517636Y0005645D01*
X0517452Y0005666D01*
X0517269Y0005690D01*
X0517087Y0005720D01*
X0516906Y0005754D01*
X0516725Y0005792D01*
X0516545Y0005834D01*
X0516367Y0005881D01*
X0516189Y0005933D01*
X0516013Y0005989D01*
X0515839Y0006049D01*
X0515666Y0006113D01*
X0515494Y0006182D01*
X0515325Y0006254D01*
X0515157Y0006331D01*
X0514991Y0006412D01*
X0514827Y0006497D01*
X0514665Y0006586D01*
X0514506Y0006679D01*
X0514349Y0006776D01*
X0514194Y0006877D01*
X0514042Y0006981D01*
X0513892Y0007089D01*
X0513745Y0007201D01*
X0513601Y0007316D01*
X0513460Y0007435D01*
X0513322Y0007558D01*
X0513186Y0007683D01*
X0513054Y0007812D01*
X0512925Y0007944D01*
X0512800Y0008080D01*
X0512677Y0008218D01*
X0512558Y0008359D01*
X0512443Y0008503D01*
X0512331Y0008650D01*
X0512223Y0008800D01*
X0512119Y0008952D01*
X0512018Y0009107D01*
X0511921Y0009264D01*
X0511828Y0009423D01*
X0511739Y0009585D01*
X0511654Y0009749D01*
X0511573Y0009915D01*
X0511496Y0010083D01*
X0511424Y0010252D01*
X0511355Y0010424D01*
X0511291Y0010597D01*
X0511231Y0010771D01*
X0511175Y0010947D01*
X0511123Y0011125D01*
X0511076Y0011303D01*
X0511034Y0011483D01*
X0510996Y0011664D01*
X0510962Y0011845D01*
X0510932Y0012027D01*
X0510908Y0012210D01*
X0510887Y0012394D01*
X0510871Y0012578D01*
X0510860Y0012762D01*
X0510853Y0012946D01*
X0510851Y0013131D01*
X0513120Y0013525D02*
X0513122Y0013670D01*
X0513128Y0013814D01*
X0513138Y0013959D01*
X0513152Y0014103D01*
X0513170Y0014247D01*
X0513192Y0014390D01*
X0513217Y0014532D01*
X0513247Y0014674D01*
X0513281Y0014815D01*
X0513318Y0014954D01*
X0513360Y0015093D01*
X0513405Y0015231D01*
X0513454Y0015367D01*
X0513506Y0015502D01*
X0513562Y0015635D01*
X0513622Y0015767D01*
X0513686Y0015897D01*
X0513753Y0016025D01*
X0513824Y0016151D01*
X0513898Y0016276D01*
X0513975Y0016398D01*
X0514056Y0016518D01*
X0514140Y0016636D01*
X0514228Y0016751D01*
X0514318Y0016864D01*
X0514412Y0016975D01*
X0514508Y0017083D01*
X0514608Y0017188D01*
X0514710Y0017290D01*
X0514815Y0017390D01*
X0514923Y0017486D01*
X0515034Y0017580D01*
X0515147Y0017670D01*
X0515262Y0017758D01*
X0515380Y0017842D01*
X0515500Y0017923D01*
X0515622Y0018000D01*
X0515746Y0018074D01*
X0515873Y0018145D01*
X0516001Y0018212D01*
X0516131Y0018276D01*
X0516263Y0018336D01*
X0516396Y0018392D01*
X0516531Y0018444D01*
X0516667Y0018493D01*
X0516805Y0018538D01*
X0516944Y0018580D01*
X0517083Y0018617D01*
X0517224Y0018651D01*
X0517366Y0018681D01*
X0517508Y0018706D01*
X0517651Y0018728D01*
X0517795Y0018746D01*
X0517939Y0018760D01*
X0518084Y0018770D01*
X0518228Y0018776D01*
X0518373Y0018778D01*
X0518518Y0018776D01*
X0518662Y0018770D01*
X0518807Y0018760D01*
X0518951Y0018746D01*
X0519095Y0018728D01*
X0519238Y0018706D01*
X0519380Y0018681D01*
X0519522Y0018651D01*
X0519663Y0018617D01*
X0519802Y0018580D01*
X0519941Y0018538D01*
X0520079Y0018493D01*
X0520215Y0018444D01*
X0520350Y0018392D01*
X0520483Y0018336D01*
X0520615Y0018276D01*
X0520745Y0018212D01*
X0520873Y0018145D01*
X0520999Y0018074D01*
X0521124Y0018000D01*
X0521246Y0017923D01*
X0521366Y0017842D01*
X0521484Y0017758D01*
X0521599Y0017670D01*
X0521712Y0017580D01*
X0521823Y0017486D01*
X0521931Y0017390D01*
X0522036Y0017290D01*
X0522138Y0017188D01*
X0522238Y0017083D01*
X0522334Y0016975D01*
X0522428Y0016864D01*
X0522518Y0016751D01*
X0522606Y0016636D01*
X0522690Y0016518D01*
X0522771Y0016398D01*
X0522848Y0016276D01*
X0522922Y0016151D01*
X0522993Y0016025D01*
X0523060Y0015897D01*
X0523124Y0015767D01*
X0523184Y0015635D01*
X0523240Y0015502D01*
X0523292Y0015367D01*
X0523341Y0015231D01*
X0523386Y0015093D01*
X0523428Y0014954D01*
X0523465Y0014815D01*
X0523499Y0014674D01*
X0523529Y0014532D01*
X0523554Y0014390D01*
X0523576Y0014247D01*
X0523594Y0014103D01*
X0523608Y0013959D01*
X0523618Y0013814D01*
X0523624Y0013670D01*
X0523626Y0013525D01*
X0523624Y0013380D01*
X0523618Y0013236D01*
X0523608Y0013091D01*
X0523594Y0012947D01*
X0523576Y0012803D01*
X0523554Y0012660D01*
X0523529Y0012518D01*
X0523499Y0012376D01*
X0523465Y0012235D01*
X0523428Y0012096D01*
X0523386Y0011957D01*
X0523341Y0011819D01*
X0523292Y0011683D01*
X0523240Y0011548D01*
X0523184Y0011415D01*
X0523124Y0011283D01*
X0523060Y0011153D01*
X0522993Y0011025D01*
X0522922Y0010899D01*
X0522848Y0010774D01*
X0522771Y0010652D01*
X0522690Y0010532D01*
X0522606Y0010414D01*
X0522518Y0010299D01*
X0522428Y0010186D01*
X0522334Y0010075D01*
X0522238Y0009967D01*
X0522138Y0009862D01*
X0522036Y0009760D01*
X0521931Y0009660D01*
X0521823Y0009564D01*
X0521712Y0009470D01*
X0521599Y0009380D01*
X0521484Y0009292D01*
X0521366Y0009208D01*
X0521246Y0009127D01*
X0521124Y0009050D01*
X0521000Y0008976D01*
X0520873Y0008905D01*
X0520745Y0008838D01*
X0520615Y0008774D01*
X0520483Y0008714D01*
X0520350Y0008658D01*
X0520215Y0008606D01*
X0520079Y0008557D01*
X0519941Y0008512D01*
X0519802Y0008470D01*
X0519663Y0008433D01*
X0519522Y0008399D01*
X0519380Y0008369D01*
X0519238Y0008344D01*
X0519095Y0008322D01*
X0518951Y0008304D01*
X0518807Y0008290D01*
X0518662Y0008280D01*
X0518518Y0008274D01*
X0518373Y0008272D01*
X0518228Y0008274D01*
X0518084Y0008280D01*
X0517939Y0008290D01*
X0517795Y0008304D01*
X0517651Y0008322D01*
X0517508Y0008344D01*
X0517366Y0008369D01*
X0517224Y0008399D01*
X0517083Y0008433D01*
X0516944Y0008470D01*
X0516805Y0008512D01*
X0516667Y0008557D01*
X0516531Y0008606D01*
X0516396Y0008658D01*
X0516263Y0008714D01*
X0516131Y0008774D01*
X0516001Y0008838D01*
X0515873Y0008905D01*
X0515746Y0008976D01*
X0515622Y0009050D01*
X0515500Y0009127D01*
X0515380Y0009208D01*
X0515262Y0009292D01*
X0515147Y0009380D01*
X0515034Y0009470D01*
X0514923Y0009564D01*
X0514815Y0009660D01*
X0514710Y0009760D01*
X0514608Y0009862D01*
X0514508Y0009967D01*
X0514412Y0010075D01*
X0514318Y0010186D01*
X0514228Y0010299D01*
X0514140Y0010414D01*
X0514056Y0010532D01*
X0513975Y0010652D01*
X0513898Y0010774D01*
X0513824Y0010898D01*
X0513753Y0011025D01*
X0513686Y0011153D01*
X0513622Y0011283D01*
X0513562Y0011415D01*
X0513506Y0011548D01*
X0513454Y0011683D01*
X0513405Y0011819D01*
X0513360Y0011957D01*
X0513318Y0012096D01*
X0513281Y0012235D01*
X0513247Y0012376D01*
X0513217Y0012518D01*
X0513192Y0012660D01*
X0513170Y0012803D01*
X0513152Y0012947D01*
X0513138Y0013091D01*
X0513128Y0013236D01*
X0513122Y0013380D01*
X0513120Y0013525D01*
D11*
X0499633Y0033407D02*
X0499633Y0046005D01*
X0536247Y0046005D02*
X0536247Y0033407D01*
X0534081Y0033407D01*
X0534081Y0031241D01*
X0501798Y0031241D01*
X0501798Y0033407D01*
X0499633Y0033407D01*
X0499633Y0064903D02*
X0499633Y0073564D01*
X0501798Y0073564D01*
X0501798Y0075730D01*
X0534081Y0075730D01*
X0534081Y0073564D01*
X0536247Y0073564D01*
X0536247Y0064903D01*
X0522014Y0077167D02*
X0517881Y0077167D01*
X0522014Y0077167D02*
X0526345Y0081497D01*
X0526345Y0098033D01*
X0518077Y0098033D01*
X0513747Y0098033D02*
X0505479Y0098033D01*
X0505479Y0081497D01*
X0509810Y0077167D01*
X0513747Y0077167D01*
X0517881Y0077954D02*
X0518115Y0078008D01*
X0518349Y0078066D01*
X0518580Y0078131D01*
X0518810Y0078201D01*
X0519038Y0078277D01*
X0519265Y0078358D01*
X0519489Y0078444D01*
X0519711Y0078537D01*
X0519931Y0078634D01*
X0520148Y0078737D01*
X0520363Y0078845D01*
X0520575Y0078958D01*
X0520785Y0079077D01*
X0520991Y0079200D01*
X0521194Y0079328D01*
X0521394Y0079462D01*
X0521591Y0079600D01*
X0521785Y0079743D01*
X0521975Y0079890D01*
X0522161Y0080042D01*
X0522343Y0080199D01*
X0522522Y0080360D01*
X0522696Y0080525D01*
X0522867Y0080695D01*
X0523033Y0080868D01*
X0523196Y0081046D01*
X0523353Y0081227D01*
X0523507Y0081413D01*
X0523655Y0081602D01*
X0523799Y0081794D01*
X0523939Y0081990D01*
X0524073Y0082189D01*
X0524203Y0082392D01*
X0524328Y0082597D01*
X0524448Y0082806D01*
X0524562Y0083017D01*
X0524672Y0083231D01*
X0524776Y0083448D01*
X0524875Y0083667D01*
X0524968Y0083889D01*
X0525056Y0084113D01*
X0525139Y0084338D01*
X0525216Y0084566D01*
X0525287Y0084796D01*
X0525353Y0085027D01*
X0525414Y0085260D01*
X0525468Y0085494D01*
X0525517Y0085729D01*
X0525560Y0085966D01*
X0525598Y0086203D01*
X0525629Y0086442D01*
X0525655Y0086681D01*
X0525675Y0086921D01*
X0525689Y0087161D01*
X0525698Y0087401D01*
X0525700Y0087641D01*
X0525697Y0087882D01*
X0525687Y0088122D01*
X0525672Y0088362D01*
X0525651Y0088602D01*
X0525625Y0088841D01*
X0525592Y0089079D01*
X0525554Y0089316D01*
X0525510Y0089553D01*
X0525460Y0089788D01*
X0525404Y0090022D01*
X0525343Y0090254D01*
X0525276Y0090485D01*
X0525204Y0090715D01*
X0525126Y0090942D01*
X0525042Y0091168D01*
X0524953Y0091391D01*
X0524859Y0091612D01*
X0524759Y0091831D01*
X0524654Y0092047D01*
X0524544Y0092261D01*
X0524429Y0092472D01*
X0524308Y0092680D01*
X0524183Y0092885D01*
X0524052Y0093087D01*
X0523917Y0093286D01*
X0523777Y0093481D01*
X0523632Y0093673D01*
X0523482Y0093861D01*
X0523328Y0094046D01*
X0523170Y0094227D01*
X0523007Y0094404D01*
X0522840Y0094577D01*
X0522669Y0094746D01*
X0522493Y0094910D01*
X0522314Y0095071D01*
X0522131Y0095226D01*
X0521944Y0095378D01*
X0521754Y0095525D01*
X0521560Y0095667D01*
X0521362Y0095804D01*
X0521162Y0095937D01*
X0520958Y0096064D01*
X0520751Y0096187D01*
X0520541Y0096304D01*
X0520329Y0096417D01*
X0520114Y0096524D01*
X0519896Y0096626D01*
X0519676Y0096723D01*
X0519453Y0096814D01*
X0519228Y0096900D01*
X0519002Y0096980D01*
X0518773Y0097055D01*
X0518543Y0097124D01*
X0518311Y0097187D01*
X0518078Y0097245D01*
X0513747Y0097245D02*
X0513515Y0097192D01*
X0513284Y0097133D01*
X0513055Y0097069D01*
X0512828Y0096998D01*
X0512602Y0096923D01*
X0512378Y0096842D01*
X0512156Y0096755D01*
X0511937Y0096663D01*
X0511720Y0096566D01*
X0511505Y0096463D01*
X0511293Y0096355D01*
X0511083Y0096242D01*
X0510876Y0096124D01*
X0510673Y0096001D01*
X0510472Y0095873D01*
X0510274Y0095740D01*
X0510080Y0095603D01*
X0509889Y0095460D01*
X0509702Y0095313D01*
X0509518Y0095162D01*
X0509339Y0095006D01*
X0509163Y0094846D01*
X0508991Y0094681D01*
X0508823Y0094512D01*
X0508659Y0094340D01*
X0508499Y0094163D01*
X0508344Y0093982D01*
X0508193Y0093798D01*
X0508047Y0093610D01*
X0507906Y0093419D01*
X0507769Y0093224D01*
X0507637Y0093026D01*
X0507510Y0092825D01*
X0507387Y0092620D01*
X0507270Y0092413D01*
X0507158Y0092203D01*
X0507051Y0091990D01*
X0506949Y0091775D01*
X0506853Y0091558D01*
X0506762Y0091338D01*
X0506676Y0091116D01*
X0506596Y0090891D01*
X0506521Y0090665D01*
X0506452Y0090438D01*
X0506388Y0090208D01*
X0506330Y0089977D01*
X0506278Y0089745D01*
X0506231Y0089512D01*
X0506190Y0089277D01*
X0506155Y0089042D01*
X0506126Y0088806D01*
X0506102Y0088569D01*
X0506084Y0088331D01*
X0506072Y0088094D01*
X0506066Y0087856D01*
X0506066Y0087618D01*
X0506071Y0087380D01*
X0506082Y0087142D01*
X0506099Y0086904D01*
X0506122Y0086667D01*
X0506150Y0086431D01*
X0506185Y0086195D01*
X0506225Y0085961D01*
X0506270Y0085727D01*
X0506322Y0085495D01*
X0506379Y0085264D01*
X0506442Y0085034D01*
X0506510Y0084806D01*
X0506584Y0084580D01*
X0506663Y0084355D01*
X0506748Y0084133D01*
X0506838Y0083912D01*
X0506934Y0083694D01*
X0507035Y0083479D01*
X0507141Y0083266D01*
X0507252Y0083055D01*
X0507369Y0082848D01*
X0507490Y0082643D01*
X0507617Y0082441D01*
X0507748Y0082243D01*
X0507884Y0082047D01*
X0508025Y0081855D01*
X0508170Y0081667D01*
X0508320Y0081482D01*
X0508475Y0081301D01*
X0508634Y0081124D01*
X0508797Y0080950D01*
X0508964Y0080781D01*
X0509136Y0080616D01*
X0509311Y0080455D01*
X0509490Y0080298D01*
X0509673Y0080146D01*
X0509860Y0079998D01*
X0510050Y0079855D01*
X0510244Y0079717D01*
X0510441Y0079583D01*
X0510641Y0079455D01*
X0510844Y0079331D01*
X0511051Y0079212D01*
X0511260Y0079098D01*
X0511472Y0078989D01*
X0511686Y0078886D01*
X0511903Y0078788D01*
X0512122Y0078695D01*
X0512344Y0078608D01*
X0512567Y0078526D01*
X0512792Y0078449D01*
X0513020Y0078378D01*
X0513249Y0078313D01*
X0513479Y0078253D01*
X0513711Y0078199D01*
X0513944Y0078150D01*
D12*
X0513940Y0054470D02*
X0513942Y0054596D01*
X0513948Y0054722D01*
X0513958Y0054848D01*
X0513972Y0054974D01*
X0513990Y0055099D01*
X0514012Y0055223D01*
X0514037Y0055347D01*
X0514067Y0055470D01*
X0514100Y0055591D01*
X0514138Y0055712D01*
X0514179Y0055831D01*
X0514224Y0055950D01*
X0514272Y0056066D01*
X0514324Y0056181D01*
X0514380Y0056294D01*
X0514440Y0056406D01*
X0514503Y0056515D01*
X0514569Y0056623D01*
X0514638Y0056728D01*
X0514711Y0056831D01*
X0514788Y0056932D01*
X0514867Y0057030D01*
X0514949Y0057126D01*
X0515035Y0057219D01*
X0515123Y0057310D01*
X0515214Y0057397D01*
X0515308Y0057482D01*
X0515404Y0057563D01*
X0515503Y0057642D01*
X0515604Y0057717D01*
X0515708Y0057789D01*
X0515814Y0057858D01*
X0515922Y0057924D01*
X0516032Y0057986D01*
X0516144Y0058044D01*
X0516257Y0058099D01*
X0516373Y0058150D01*
X0516490Y0058198D01*
X0516608Y0058242D01*
X0516728Y0058282D01*
X0516849Y0058318D01*
X0516971Y0058351D01*
X0517094Y0058380D01*
X0517218Y0058404D01*
X0517342Y0058425D01*
X0517467Y0058442D01*
X0517593Y0058455D01*
X0517719Y0058464D01*
X0517845Y0058469D01*
X0517972Y0058470D01*
X0518098Y0058467D01*
X0518224Y0058460D01*
X0518350Y0058449D01*
X0518475Y0058434D01*
X0518600Y0058415D01*
X0518724Y0058392D01*
X0518848Y0058366D01*
X0518970Y0058335D01*
X0519092Y0058301D01*
X0519212Y0058262D01*
X0519331Y0058220D01*
X0519449Y0058175D01*
X0519565Y0058125D01*
X0519680Y0058072D01*
X0519792Y0058015D01*
X0519903Y0057955D01*
X0520012Y0057891D01*
X0520119Y0057824D01*
X0520224Y0057754D01*
X0520327Y0057680D01*
X0520427Y0057603D01*
X0520525Y0057523D01*
X0520620Y0057440D01*
X0520712Y0057354D01*
X0520802Y0057265D01*
X0520889Y0057173D01*
X0520972Y0057079D01*
X0521053Y0056982D01*
X0521131Y0056882D01*
X0521206Y0056780D01*
X0521277Y0056676D01*
X0521345Y0056569D01*
X0521409Y0056461D01*
X0521470Y0056350D01*
X0521528Y0056238D01*
X0521582Y0056124D01*
X0521632Y0056008D01*
X0521679Y0055891D01*
X0521722Y0055772D01*
X0521761Y0055652D01*
X0521797Y0055531D01*
X0521828Y0055408D01*
X0521856Y0055285D01*
X0521880Y0055161D01*
X0521900Y0055036D01*
X0521916Y0054911D01*
X0521928Y0054785D01*
X0521936Y0054659D01*
X0521940Y0054533D01*
X0521940Y0054407D01*
X0521936Y0054281D01*
X0521928Y0054155D01*
X0521916Y0054029D01*
X0521900Y0053904D01*
X0521880Y0053779D01*
X0521856Y0053655D01*
X0521828Y0053532D01*
X0521797Y0053409D01*
X0521761Y0053288D01*
X0521722Y0053168D01*
X0521679Y0053049D01*
X0521632Y0052932D01*
X0521582Y0052816D01*
X0521528Y0052702D01*
X0521470Y0052590D01*
X0521409Y0052479D01*
X0521345Y0052371D01*
X0521277Y0052264D01*
X0521206Y0052160D01*
X0521131Y0052058D01*
X0521053Y0051958D01*
X0520972Y0051861D01*
X0520889Y0051767D01*
X0520802Y0051675D01*
X0520712Y0051586D01*
X0520620Y0051500D01*
X0520525Y0051417D01*
X0520427Y0051337D01*
X0520327Y0051260D01*
X0520224Y0051186D01*
X0520119Y0051116D01*
X0520012Y0051049D01*
X0519903Y0050985D01*
X0519792Y0050925D01*
X0519680Y0050868D01*
X0519565Y0050815D01*
X0519449Y0050765D01*
X0519331Y0050720D01*
X0519212Y0050678D01*
X0519092Y0050639D01*
X0518970Y0050605D01*
X0518848Y0050574D01*
X0518724Y0050548D01*
X0518600Y0050525D01*
X0518475Y0050506D01*
X0518350Y0050491D01*
X0518224Y0050480D01*
X0518098Y0050473D01*
X0517972Y0050470D01*
X0517845Y0050471D01*
X0517719Y0050476D01*
X0517593Y0050485D01*
X0517467Y0050498D01*
X0517342Y0050515D01*
X0517218Y0050536D01*
X0517094Y0050560D01*
X0516971Y0050589D01*
X0516849Y0050622D01*
X0516728Y0050658D01*
X0516608Y0050698D01*
X0516490Y0050742D01*
X0516373Y0050790D01*
X0516257Y0050841D01*
X0516144Y0050896D01*
X0516032Y0050954D01*
X0515922Y0051016D01*
X0515814Y0051082D01*
X0515708Y0051151D01*
X0515604Y0051223D01*
X0515503Y0051298D01*
X0515404Y0051377D01*
X0515308Y0051458D01*
X0515214Y0051543D01*
X0515123Y0051630D01*
X0515035Y0051721D01*
X0514949Y0051814D01*
X0514867Y0051910D01*
X0514788Y0052008D01*
X0514711Y0052109D01*
X0514638Y0052212D01*
X0514569Y0052317D01*
X0514503Y0052425D01*
X0514440Y0052534D01*
X0514380Y0052646D01*
X0514324Y0052759D01*
X0514272Y0052874D01*
X0514224Y0052990D01*
X0514179Y0053109D01*
X0514138Y0053228D01*
X0514100Y0053349D01*
X0514067Y0053470D01*
X0514037Y0053593D01*
X0514012Y0053717D01*
X0513990Y0053841D01*
X0513972Y0053966D01*
X0513958Y0054092D01*
X0513948Y0054218D01*
X0513942Y0054344D01*
X0513940Y0054470D01*
X0512440Y0054470D02*
X0512442Y0054618D01*
X0512448Y0054766D01*
X0512458Y0054914D01*
X0512472Y0055062D01*
X0512490Y0055209D01*
X0512512Y0055356D01*
X0512538Y0055502D01*
X0512567Y0055647D01*
X0512601Y0055792D01*
X0512639Y0055935D01*
X0512680Y0056078D01*
X0512725Y0056219D01*
X0512775Y0056359D01*
X0512827Y0056497D01*
X0512884Y0056635D01*
X0512944Y0056770D01*
X0513008Y0056904D01*
X0513075Y0057036D01*
X0513146Y0057166D01*
X0513221Y0057295D01*
X0513299Y0057421D01*
X0513380Y0057545D01*
X0513464Y0057667D01*
X0513552Y0057786D01*
X0513643Y0057903D01*
X0513737Y0058018D01*
X0513835Y0058130D01*
X0513935Y0058239D01*
X0514038Y0058346D01*
X0514144Y0058450D01*
X0514252Y0058551D01*
X0514364Y0058649D01*
X0514478Y0058744D01*
X0514594Y0058835D01*
X0514713Y0058924D01*
X0514834Y0059009D01*
X0514958Y0059091D01*
X0515084Y0059170D01*
X0515211Y0059245D01*
X0515341Y0059317D01*
X0515473Y0059386D01*
X0515606Y0059450D01*
X0515741Y0059511D01*
X0515878Y0059569D01*
X0516016Y0059623D01*
X0516156Y0059673D01*
X0516297Y0059719D01*
X0516439Y0059761D01*
X0516582Y0059800D01*
X0516726Y0059834D01*
X0516872Y0059865D01*
X0517017Y0059892D01*
X0517164Y0059915D01*
X0517311Y0059934D01*
X0517459Y0059949D01*
X0517606Y0059960D01*
X0517755Y0059967D01*
X0517903Y0059970D01*
X0518051Y0059969D01*
X0518199Y0059964D01*
X0518347Y0059955D01*
X0518495Y0059942D01*
X0518643Y0059925D01*
X0518789Y0059904D01*
X0518936Y0059879D01*
X0519081Y0059850D01*
X0519226Y0059818D01*
X0519369Y0059781D01*
X0519512Y0059741D01*
X0519654Y0059696D01*
X0519794Y0059648D01*
X0519933Y0059596D01*
X0520070Y0059541D01*
X0520206Y0059481D01*
X0520341Y0059418D01*
X0520473Y0059352D01*
X0520604Y0059282D01*
X0520733Y0059208D01*
X0520859Y0059131D01*
X0520984Y0059051D01*
X0521106Y0058967D01*
X0521227Y0058880D01*
X0521344Y0058790D01*
X0521460Y0058696D01*
X0521572Y0058600D01*
X0521682Y0058501D01*
X0521790Y0058398D01*
X0521894Y0058293D01*
X0521996Y0058185D01*
X0522094Y0058074D01*
X0522190Y0057961D01*
X0522283Y0057845D01*
X0522372Y0057727D01*
X0522458Y0057606D01*
X0522541Y0057483D01*
X0522621Y0057358D01*
X0522697Y0057231D01*
X0522770Y0057101D01*
X0522839Y0056970D01*
X0522904Y0056837D01*
X0522967Y0056703D01*
X0523025Y0056566D01*
X0523080Y0056428D01*
X0523130Y0056289D01*
X0523178Y0056148D01*
X0523221Y0056007D01*
X0523261Y0055864D01*
X0523296Y0055720D01*
X0523328Y0055575D01*
X0523356Y0055429D01*
X0523380Y0055283D01*
X0523400Y0055136D01*
X0523416Y0054988D01*
X0523428Y0054841D01*
X0523436Y0054692D01*
X0523440Y0054544D01*
X0523440Y0054396D01*
X0523436Y0054248D01*
X0523428Y0054099D01*
X0523416Y0053952D01*
X0523400Y0053804D01*
X0523380Y0053657D01*
X0523356Y0053511D01*
X0523328Y0053365D01*
X0523296Y0053220D01*
X0523261Y0053076D01*
X0523221Y0052933D01*
X0523178Y0052792D01*
X0523130Y0052651D01*
X0523080Y0052512D01*
X0523025Y0052374D01*
X0522967Y0052237D01*
X0522904Y0052103D01*
X0522839Y0051970D01*
X0522770Y0051839D01*
X0522697Y0051709D01*
X0522621Y0051582D01*
X0522541Y0051457D01*
X0522458Y0051334D01*
X0522372Y0051213D01*
X0522283Y0051095D01*
X0522190Y0050979D01*
X0522094Y0050866D01*
X0521996Y0050755D01*
X0521894Y0050647D01*
X0521790Y0050542D01*
X0521682Y0050439D01*
X0521572Y0050340D01*
X0521460Y0050244D01*
X0521344Y0050150D01*
X0521227Y0050060D01*
X0521106Y0049973D01*
X0520984Y0049889D01*
X0520859Y0049809D01*
X0520733Y0049732D01*
X0520604Y0049658D01*
X0520473Y0049588D01*
X0520341Y0049522D01*
X0520206Y0049459D01*
X0520070Y0049399D01*
X0519933Y0049344D01*
X0519794Y0049292D01*
X0519654Y0049244D01*
X0519512Y0049199D01*
X0519369Y0049159D01*
X0519226Y0049122D01*
X0519081Y0049090D01*
X0518936Y0049061D01*
X0518789Y0049036D01*
X0518643Y0049015D01*
X0518495Y0048998D01*
X0518347Y0048985D01*
X0518199Y0048976D01*
X0518051Y0048971D01*
X0517903Y0048970D01*
X0517755Y0048973D01*
X0517606Y0048980D01*
X0517459Y0048991D01*
X0517311Y0049006D01*
X0517164Y0049025D01*
X0517017Y0049048D01*
X0516872Y0049075D01*
X0516726Y0049106D01*
X0516582Y0049140D01*
X0516439Y0049179D01*
X0516297Y0049221D01*
X0516156Y0049267D01*
X0516016Y0049317D01*
X0515878Y0049371D01*
X0515741Y0049429D01*
X0515606Y0049490D01*
X0515473Y0049554D01*
X0515341Y0049623D01*
X0515211Y0049695D01*
X0515084Y0049770D01*
X0514958Y0049849D01*
X0514834Y0049931D01*
X0514713Y0050016D01*
X0514594Y0050105D01*
X0514478Y0050196D01*
X0514364Y0050291D01*
X0514252Y0050389D01*
X0514144Y0050490D01*
X0514038Y0050594D01*
X0513935Y0050701D01*
X0513835Y0050810D01*
X0513737Y0050922D01*
X0513643Y0051037D01*
X0513552Y0051154D01*
X0513464Y0051273D01*
X0513380Y0051395D01*
X0513299Y0051519D01*
X0513221Y0051645D01*
X0513146Y0051774D01*
X0513075Y0051904D01*
X0513008Y0052036D01*
X0512944Y0052170D01*
X0512884Y0052305D01*
X0512827Y0052443D01*
X0512775Y0052581D01*
X0512725Y0052721D01*
X0512680Y0052862D01*
X0512639Y0053005D01*
X0512601Y0053148D01*
X0512567Y0053293D01*
X0512538Y0053438D01*
X0512512Y0053584D01*
X0512490Y0053731D01*
X0512472Y0053878D01*
X0512458Y0054026D01*
X0512448Y0054174D01*
X0512442Y0054322D01*
X0512440Y0054470D01*
M02*
